<svg xmlns="http://www.w3.org/2000/svg" xmlns:xlink="http://www.w3.org/1999/xlink"><symbol id="icon-detective"><path d="M15.77 8.217a.594.594 0 00-.592.596c0 .33.265.596.592.596a.594.594 0 00.592-.596.594.594 0 00-.592-.596z" fill="#00B2FF"/><path d="M29.148 11.794h-2.303C25.63 8.302 23.869 2.18 20.677.448c-1.596-.866-3.105-.261-3.672.967a1.34 1.34 0 01-1.235.796 1.34 1.34 0 01-1.236-.796C13.987.23 12.514-.43 10.974.322c-3.242 1.586-5.056 7.954-6.28 11.472H2.391c-.981 0-1.776.8-1.776 1.788 0 .986.797 1.789 1.776 1.789h26.757c.981 0 1.776-.8 1.776-1.789 0-.986-.797-1.788-1.776-1.788zM6.774 9.409h6.628a.594.594 0 00.592-.596.594.594 0 00-.592-.596H7.188c1.784-4.964 3.451-6.406 4.303-6.823.93-.454 1.694-.074 1.97.524a2.522 2.522 0 002.309 1.486c.978 0 1.875-.549 2.308-1.486.284-.615 1.053-.955 2.037-.42.856.464 2.518 1.954 4.236 6.72h-6.214a.594.594 0 00-.591.595c0 .33.265.596.591.596h6.628l.825 2.385H5.95l.825-2.385zm22.374 4.77H2.391a.595.595 0 01-.592-.597c0-.329.265-.596.592-.596h26.757c.326 0 .592.268.592.596a.594.594 0 01-.592.596zm-14.562 3.576H5.114a.594.594 0 00-.592.596v2.385c0 2.958 2.39 5.365 5.328 5.365a5.317 5.317 0 004.98-3.456 2.257 2.257 0 011.88 0 5.317 5.317 0 004.98 3.456c2.937 0 5.327-2.407 5.327-5.365V18.35a.594.594 0 00-.592-.596h-9.471a.594.594 0 00-.592.596v.596h-1.184v-.596a.594.594 0 00-.592-.596zM9.85 24.91c-2.285 0-4.144-1.872-4.144-4.173v-1.788h8.288v1.788c0 2.307-1.85 4.173-4.144 4.173zm7.696-5.961h8.287v1.788c0 2.3-1.859 4.173-4.143 4.173-2.301 0-4.144-1.872-4.144-4.173v-1.788zm-1.184 1.192v.596c0 .19.01.38.03.569a3.441 3.441 0 00-1.245 0c.02-.189.03-.379.03-.57v-.595h1.185z" fill="#00B2FF"/><path d="M9.85 22.524c-.98 0-1.776-.802-1.776-1.788a.594.594 0 00-.592-.596.594.594 0 00-.592.596c0 1.643 1.328 2.98 2.96 2.98a.594.594 0 00.592-.596.594.594 0 00-.592-.596zm11.84 1.192c1.632 0 2.96-1.337 2.96-2.98a.594.594 0 00-.592-.596.594.594 0 00-.593.596c0 .986-.796 1.788-1.775 1.788a.594.594 0 00-.592.596c0 .33.265.596.592.596z" fill="#00B2FF"/></symbol><symbol id="icon-envelope" viewBox="0 0 26 19">
<path d="M22.2407 0H3.09787C1.38906 0 0 1.34493 0 2.99946V15.6672C0 17.3217 1.38906 18.6667 3.09787 18.6667H22.2355C23.9443 18.6667 25.3333 17.3217 25.3333 15.6672V3.00453C25.3386 1.35001 23.9495 0 22.2407 0ZM23.9233 15.6672C23.9233 16.5655 23.1685 17.2964 22.2407 17.2964H3.09787C2.17008 17.2964 1.41527 16.5655 1.41527 15.6672V3.00453C1.41527 2.10622 2.17008 1.37539 3.09787 1.37539H22.2355C23.1632 1.37539 23.9181 2.10622 23.9181 3.00453V15.6672H23.9233Z" fill="#00B2FF"/>
<path d="M15.9768 9.17598L22.1725 3.79624C22.4608 3.54248 22.487 3.11108 22.2249 2.82687C21.9629 2.54773 21.5173 2.52236 21.2238 2.77612L12.6797 10.2012L11.0129 8.75981C11.0076 8.75473 11.0024 8.74966 11.0024 8.74458C10.9657 8.70905 10.929 8.6786 10.8871 8.64815L4.10425 2.77104C3.81071 2.51728 3.36517 2.54266 3.10308 2.82687C2.84099 3.11108 2.8672 3.54248 3.16074 3.79624L9.42986 9.22165L3.18695 14.8805C2.90389 15.1394 2.88817 15.5708 3.1555 15.8499C3.29702 15.992 3.48573 16.0681 3.67443 16.0681C3.84741 16.0681 4.02038 16.0072 4.15667 15.8854L10.4939 10.1453L12.2132 11.6324C12.3495 11.7491 12.5172 11.8049 12.685 11.8049C12.8527 11.8049 13.0257 11.744 13.1567 11.6273L14.9232 10.0946L21.2238 15.8905C21.3601 16.0174 21.5383 16.0783 21.7112 16.0783C21.9 16.0783 22.0834 16.0072 22.2249 15.8651C22.4923 15.5911 22.4818 15.1546 22.1987 14.8958L15.9768 9.17598Z" fill="#00B2FF"/>
</symbol><symbol id="icon-facebook"><path fill-rule="evenodd" clip-rule="evenodd" d="M27 13.5C27 6.045 20.956 0 13.5 0S0 6.045 0 13.5C0 20.956 6.044 27 13.5 27S27 20.956 27 13.5zM16.884 9.294h-1.74c-.469 0-.798.397-.798.891v.775h2.485l-.402 2.517h-2.083v6.747h-2.543v-6.747h-1.688V10.96h1.688V9.677h.004c.045-1.463.553-2.856 3.031-2.944v-.01h2.046v2.571z" fill="#CDCDCD"/></symbol><symbol id="icon-hired"><path d="M28.555 26.192c.34-.477.54-1.062.54-1.694v-3.776a.624.624 0 00-.619-.629h-2.768c-1.28 0-2.322 1.057-2.322 2.355v2.05c0 .632.201 1.216.54 1.693a3.95 3.95 0 00-1.21.409 5.26 5.26 0 00-3.892-2.353l-.019-.005c.58-.657.933-1.523.933-2.473v-5.132a.624.624 0 00-.62-.629h-3.762c-1.617 0-2.932 1.335-2.932 2.975v2.787c0 .948.353 1.815.933 2.472l-.02.005a5.26 5.26 0 00-3.89 2.353 3.952 3.952 0 00-1.211-.409 2.9 2.9 0 00.54-1.692v-3.777a.624.624 0 00-.619-.629h-2.77c-1.28 0-2.321 1.057-2.321 2.355v2.05c0 .633.201 1.217.541 1.694-1.917.318-3.386 2.01-3.386 4.044v1.862c0 .347.278.628.62.628h30.48c.342 0 .62-.281.62-.628v-1.862c0-2.034-1.469-3.726-3.386-4.044zm-24.25-3.744c0-.605.486-1.098 1.082-1.098h2.15v.766c0 .375-.301.68-.671.68h-2.56v-.348zm0 1.605h2.56c.237 0 .463-.044.671-.123v.569c0 .903-.724 1.639-1.615 1.639s-1.616-.736-1.616-1.64v-.445zm2.015 3.342l-.4.405-.399-.405h.8zm2.237 2.172v1.902H1.46v-1.233c0-1.41 1.018-2.583 2.347-2.803l1.676 1.7a.615.615 0 00.876 0l1.677-1.701c.296.049.58.146.846.287a5.388 5.388 0 00-.325 1.848zm7.524-5.344c-1.333 0-2.418-1.1-2.418-2.453v-.831h3.702c.41 0 .797-.107 1.134-.294v1.125c0 1.352-1.084 2.453-2.418 2.453zm1.08 1.257l-1.08 1.096L15 25.48h2.16zm-3.499-6.497c0-.947.76-1.718 1.694-1.718h3.143v1.266c0 .635-.508 1.15-1.134 1.15h-3.702v-.698zm8.704 12.486H9.796v-1.257h4.034c.342 0 .62-.281.62-.628a.624.624 0 00-.62-.629H9.841c.266-1.786 1.675-3.196 3.445-3.437l2.357 2.39a.613.613 0 00.876 0l2.357-2.39c1.967.268 3.49 1.98 3.49 4.05v1.901zm2.26-9.02c0-.606.485-1.099 1.082-1.099h2.149v.766c0 .375-.301.68-.671.68h-2.56v-.348zm0 1.604h2.56c.236 0 .462-.044.67-.123v.569c0 .903-.724 1.639-1.615 1.639-.89 0-1.616-.736-1.616-1.64v-.445zm2.014 3.342l-.399.405-.4-.405h.8zm-3.035 4.074v-1.902c0-.65-.115-1.272-.325-1.848.265-.142.55-.238.846-.287l1.677 1.701a.615.615 0 00.876 0l1.676-1.7c1.33.22 2.347 1.393 2.347 2.803v1.233h-7.097zM19.134 4.653a.613.613 0 00-.877 0l-3.04 3.085-1.314-1.334a.613.613 0 00-.876 0 .635.635 0 000 .89L14.78 9.07a.615.615 0 00.877 0l3.478-3.529a.635.635 0 000-.889z" fill="#00B2FF"/><path d="M18.614 1.092a.616.616 0 00-.818.318.632.632 0 00.314.83c1.796.813 2.957 2.627 2.957 4.622 0 2.79-2.236 5.058-4.986 5.058-2.749 0-4.986-2.269-4.986-5.058 0-1.985 1.153-3.795 2.936-4.612a.632.632 0 00.31-.832.616.616 0 00-.82-.314c-2.226 1.02-3.665 3.28-3.665 5.758 0 3.482 2.793 6.315 6.225 6.315 3.433 0 6.225-2.833 6.225-6.315 0-2.49-1.449-4.755-3.692-5.77z" fill="#00B2FF"/><path d="M16.103.547h-.022a.624.624 0 00-.62.628c0 .348.278.629.62.629h.019c.341 0 .618-.28.62-.626a.624.624 0 00-.617-.631zm.416 28.593a.62.62 0 00-.438-.185.62.62 0 00-.438.184.638.638 0 000 .889.62.62 0 00.438.184.62.62 0 00.438-.184.638.638 0 000-.889z" fill="#00B2FF"/></symbol><symbol id="icon-logo-d"><path d="M76.936 24.337c0-.724-.188-1.27-.562-1.636-.366-.374-1.038-.76-2.014-1.16-1.782-.675-3.064-1.464-3.845-2.368-.782-.911-1.172-1.985-1.172-3.222 0-1.498.529-2.698 1.587-3.601 1.066-.912 2.417-1.368 4.052-1.368 1.09 0 2.063.232 2.918.696a4.708 4.708 0 011.965 1.941c.464.838.696 1.79.696 2.857h-3.577c0-.83-.179-1.461-.537-1.892-.35-.44-.858-.66-1.526-.66-.626 0-1.115.188-1.465.562-.35.366-.524.862-.524 1.49 0 .487.195.93.586 1.33.39.39 1.082.797 2.075 1.22 1.733.627 2.99 1.396 3.772 2.308.79.911 1.184 2.07 1.184 3.479 0 1.546-.493 2.754-1.477 3.625-.985.87-2.324 1.306-4.016 1.306-1.148 0-2.194-.236-3.138-.708a5.35 5.35 0 01-2.221-2.026c-.53-.88-.794-1.917-.794-3.113h3.601c0 1.025.2 1.77.599 2.234.398.464 1.05.696 1.953.696 1.253 0 1.88-.664 1.88-1.99zm9.07-8.545l.097 1.22c.773-.976 1.794-1.464 3.064-1.464 1.318 0 2.25.594 2.795 1.782.757-1.188 1.835-1.782 3.235-1.782 2.311 0 3.495 1.599 3.552 4.797V29h-3.454v-8.435c0-.765-.106-1.31-.317-1.636-.212-.325-.57-.488-1.075-.488-.643 0-1.123.395-1.44 1.184l.024.415V29h-3.454v-8.41c0-.758-.102-1.303-.305-1.636-.204-.342-.566-.513-1.087-.513-.594 0-1.066.321-1.416.964V29h-3.454V15.792h3.234zM107.586 29c-.097-.203-.195-.545-.293-1.025-.618.846-1.456 1.27-2.514 1.27-1.107 0-2.027-.367-2.759-1.1-.724-.732-1.086-1.68-1.086-2.844 0-1.383.439-2.453 1.318-3.21.887-.757 2.161-1.144 3.821-1.16h1.05V19.87c0-.594-.102-1.013-.306-1.257-.203-.244-.5-.366-.891-.366-.862 0-1.294.504-1.294 1.513h-3.454c0-1.22.455-2.226 1.367-3.015.919-.797 2.079-1.196 3.479-1.196 1.448 0 2.567.378 3.357 1.135.797.749 1.196 1.823 1.196 3.223v6.213c.016 1.14.179 2.03.488 2.674V29h-3.479zm-2.038-2.466c.382 0 .708-.077.976-.232.269-.154.468-.337.599-.55v-2.746h-.831c-.585 0-1.049.188-1.391.562-.334.374-.501.875-.501 1.501 0 .977.383 1.465 1.148 1.465zm14.05-7.41l-1.147-.097c-.944 0-1.583.415-1.917 1.245V29h-3.467V15.792h3.26l.097 1.428c.546-1.115 1.298-1.672 2.259-1.672.39 0 .708.053.952.159l-.037 3.418zm6.409-6.58v3.248h1.77v2.6h-1.77v6.555c0 .521.069.88.207 1.075.147.195.424.293.83.293.334 0 .607-.029.818-.086l-.024 2.686c-.586.22-1.221.33-1.904.33-2.23 0-3.357-1.279-3.382-3.834v-7.019h-1.526v-2.6h1.526v-3.247h3.455zM135.615 29V11.227h4.699c2.076 0 3.728.659 4.957 1.977 1.236 1.319 1.867 3.125 1.892 5.42v2.88c0 2.336-.619 4.172-1.856 5.506-1.229 1.327-2.925 1.99-5.09 1.99h-4.602zm3.589-14.783v11.804h1.074c1.196 0 2.038-.313 2.527-.94.488-.634.744-1.725.769-3.27v-3.09c0-1.66-.232-2.815-.696-3.466-.464-.66-1.253-1.005-2.368-1.038h-1.306zm15.71 15.027c-1.774 0-3.157-.529-4.15-1.587-.993-1.058-1.49-2.571-1.49-4.54v-1.05c0-2.084.456-3.691 1.368-4.822.911-1.132 2.217-1.697 3.918-1.697 1.66 0 2.909.533 3.748 1.599.838 1.058 1.265 2.629 1.281 4.712v1.697h-6.872c.049.976.264 1.692.647 2.148.382.448.972.671 1.77.671 1.155 0 2.12-.394 2.893-1.184l1.355 2.088c-.423.586-1.038 1.062-1.843 1.428a6.392 6.392 0 01-2.625.537zm-2.173-8.105h3.455v-.318c-.016-.79-.147-1.387-.391-1.794-.244-.407-.667-.61-1.269-.61-.603 0-1.042.215-1.319.646-.268.432-.427 1.123-.476 2.076zm12.964 2.978l1.672-8.325h3.602L167.353 29h-3.296l-3.638-13.208h3.614l1.672 8.325zM176.228 29h-3.467V15.792h3.467V29zm-3.626-16.626c0-.537.171-.976.513-1.318.342-.342.797-.513 1.367-.513s1.025.17 1.367.513c.342.342.513.78.513 1.318 0 .529-.171.968-.513 1.318-.334.35-.789.525-1.367.525s-1.038-.175-1.379-.525c-.334-.35-.501-.789-.501-1.318zm11.072 14.001c1.001 0 1.509-.65 1.526-1.953h3.247c-.016 1.44-.46 2.604-1.331 3.492-.871.887-1.994 1.33-3.369 1.33-1.701 0-2.999-.529-3.894-1.587-.895-1.058-1.351-2.616-1.367-4.675v-1.05c0-2.075.439-3.658 1.318-4.748.887-1.09 2.193-1.636 3.919-1.636 1.456 0 2.604.451 3.442 1.355.838.895 1.266 2.169 1.282 3.82H185.2c-.008-.74-.131-1.31-.367-1.708-.236-.4-.626-.599-1.171-.599-.603 0-1.034.216-1.294.648-.261.423-.399 1.249-.415 2.477v1.343c0 1.075.053 1.827.158 2.259.106.423.281.736.525.94.244.195.59.293 1.038.293zm12.06 2.87c-1.774 0-3.157-.53-4.15-1.588-.993-1.058-1.489-2.571-1.489-4.54v-1.05c0-2.084.455-3.691 1.367-4.822.911-1.132 2.218-1.697 3.918-1.697 1.661 0 2.91.533 3.748 1.599.838 1.058 1.265 2.629 1.282 4.712v1.697h-6.873c.049.976.265 1.692.647 2.148.383.448.973.671 1.77.671 1.156 0 2.12-.394 2.893-1.184l1.355 2.088c-.423.586-1.037 1.062-1.843 1.428a6.392 6.392 0 01-2.625.537zm-2.172-8.106h3.454v-.318c-.016-.79-.146-1.387-.391-1.794-.244-.407-.667-.61-1.269-.61-.602 0-1.042.215-1.318.646-.269.432-.428 1.123-.476 2.076z" fill="#fff"/><path d="M70.947 44.96l1.29-4.3h1.517l-2.52 7.3c-.386 1.067-1.043 1.6-1.968 1.6a2.55 2.55 0 01-.686-.105v-1.102l.27.018c.359 0 .629-.066.808-.2.184-.128.328-.347.434-.655l.205-.545-2.227-6.31h1.536l1.341 4.3zm7.395.288l1.875-4.588h1.781V47h-1.424v-4.195L78.828 47h-.967l-1.752-4.219V47h-1.423v-6.34h1.792l1.864 4.588zM88.97 47h-1.424v-2.56H85.08V47h-1.424v-6.34h1.424v2.643h2.467V40.66h1.424V47zm3.052-4.324h1.395c.52 0 .973.09 1.36.27.386.179.679.431.878.755.203.324.305.701.305 1.131 0 .652-.23 1.176-.692 1.57-.46.395-1.074.594-1.84.598H90.6v-6.34h1.424v2.016zM98.44 47h-1.423v-6.34h1.423V47zm-6.416-3.182v2.045h1.39c.347 0 .62-.086.82-.258.203-.175.304-.423.304-.744 0-.32-.1-.572-.299-.755-.195-.188-.46-.284-.797-.288h-1.418zm10.916 3.3c-.902 0-1.634-.284-2.197-.85-.558-.57-.838-1.328-.838-2.274v-.176c0-.633.121-1.197.364-1.693.246-.5.589-.889 1.031-1.166a2.715 2.715 0 011.476-.416c.864 0 1.53.275 1.998.826.473.55.709 1.33.709 2.338v.574h-4.142c.043.524.217.938.521 1.242.309.305.696.457 1.16.457.653 0 1.184-.263 1.594-.79l.768.732a2.58 2.58 0 01-1.02.885c-.422.207-.896.31-1.424.31zm-.169-5.433c-.391 0-.708.137-.95.41-.238.274-.39.655-.457 1.143h2.713v-.105c-.031-.477-.158-.836-.381-1.078-.222-.246-.531-.37-.925-.37zm11.8.106h-2.056V47h-1.424v-5.209h-2.033v-1.13h5.513v1.13zm3.369 5.326c-.902 0-1.634-.283-2.197-.85-.558-.57-.838-1.328-.838-2.273v-.176c0-.633.121-1.197.364-1.693.246-.5.589-.889 1.031-1.166a2.715 2.715 0 011.476-.416c.864 0 1.53.275 1.998.826.473.55.709 1.33.709 2.338v.574h-4.142c.043.524.217.938.521 1.242.309.305.696.457 1.16.457.653 0 1.184-.263 1.594-.79l.768.732a2.58 2.58 0 01-1.02.885c-.422.207-.896.31-1.424.31zm-.169-5.431c-.391 0-.708.136-.95.41-.238.273-.39.654-.457 1.142h2.713v-.105c-.031-.477-.158-.836-.381-1.078-.222-.246-.531-.37-.925-.37zm6.099 1.06l1.207-2.086h1.582l-1.939 3.123L126.723 47h-1.571l-1.265-2.168-1.26 2.168h-1.582l2.004-3.217-1.934-3.123h1.571l1.183 2.086zM132.998 47h-1.424v-2.56h-2.467V47h-1.423v-6.34h1.423v2.643h2.467V40.66h1.424V47zm1.254-3.228c0-.622.123-1.18.369-1.676.246-.5.592-.883 1.037-1.149.446-.27.957-.404 1.535-.404.856 0 1.549.275 2.08.826.536.55.825 1.281.868 2.191l.005.334c0 .626-.121 1.184-.363 1.676a2.638 2.638 0 01-1.031 1.143c-.445.27-.961.404-1.547.404-.894 0-1.611-.297-2.15-.89-.535-.598-.803-1.393-.803-2.385v-.07zm1.424.123c0 .652.135 1.164.404 1.535.27.367.645.55 1.125.55.481 0 .854-.187 1.119-.562.27-.375.405-.924.405-1.646 0-.641-.139-1.149-.417-1.524a1.31 1.31 0 00-1.119-.563c-.464 0-.834.186-1.107.557-.274.367-.41.918-.41 1.653zm10.969-3.235V47h-1.424v-5.191h-1.793l-.117 2.209c-.075 1.062-.28 1.826-.616 2.29-.332.462-.841.692-1.529.692h-.439l-.006-1.184.293-.029c.312-.043.539-.232.679-.568.145-.34.237-.957.276-1.852l.117-2.707h4.559zm1.248 3.112c0-.622.123-1.18.369-1.676.246-.5.592-.883 1.037-1.149.445-.27.957-.404 1.535-.404.855 0 1.549.275 2.08.826.535.55.824 1.281.867 2.191l.006.334c0 .626-.121 1.184-.363 1.676a2.638 2.638 0 01-1.031 1.143c-.446.27-.961.404-1.547.404-.895 0-1.612-.297-2.151-.89-.535-.598-.802-1.393-.802-2.385v-.07zm1.423.123c0 .652.135 1.164.405 1.535.269.367.644.55 1.125.55.48 0 .853-.187 1.119-.562.269-.375.404-.924.404-1.646 0-.641-.139-1.149-.416-1.524a1.31 1.31 0 00-1.119-.563c-.465 0-.834.186-1.107.557-.274.367-.411.918-.411 1.653zm9.897-2.086h-2.754V47h-1.418v-6.34h4.172v1.149zm4.764-1.149h1.418V47h-1.418v-4.23L161.492 47h-1.418v-6.34h1.418v4.23l2.485-4.23zm6.89 0h1.418V47h-1.418v-4.23L168.383 47h-1.418v-6.34h1.418v4.23l2.484-4.23z" fill="#788891"/><path d="M32.066 13.867c1.129 0 2.082.727 2.441 1.733h8.986a2.596 2.596 0 012.44-1.733c1.434 0 2.6 1.166 2.6 2.6 0 1.433-1.166 2.6-2.6 2.6a2.597 2.597 0 01-2.44-1.734h-8.987a2.597 2.597 0 01-2.44 1.733 2.603 2.603 0 01-2.6-2.6c0-1.433 1.167-2.6 2.6-2.6zm13.867 3.466a.868.868 0 000-1.733.868.868 0 000 1.733zm-13.867 0a.868.868 0 000-1.733.867.867 0 000 1.733z" fill="#00B2FF"/><path d="M25.133 19.226v-5.36c0-.23.091-.45.254-.612l3.467-3.467a.864.864 0 01.613-.254h2.76a2.596 2.596 0 012.44-1.733c1.433 0 2.6 1.166 2.6 2.6 0 1.433-1.167 2.6-2.6 2.6a2.596 2.596 0 01-2.44-1.733h-2.402l-2.958 2.958v5a2.596 2.596 0 011.733 2.441c0 1.434-1.167 2.6-2.6 2.6a2.603 2.603 0 01-2.6-2.6c0-1.128.727-2.081 1.733-2.44zm9.534-7.96a.868.868 0 10-.002-1.735.868.868 0 00.002 1.736zM26 22.534a.867.867 0 10-.002-1.735.867.867 0 00.002 1.735zm-16.467-.001c.4 0 .775.098 1.114.26l1.486-1.485V13c0-.23.091-.45.254-.613l8.674-8.673A2.556 2.556 0 0120.8 2.6c0-1.433 1.166-2.6 2.6-2.6C24.834 0 26 1.167 26 2.6s-1.166 2.6-2.6 2.6c-.4 0-.775-.098-1.114-.261l-8.42 8.42v8.307c0 .23-.09.451-.253.613l-1.74 1.74c.162.34.26.714.26 1.114 0 1.433-1.166 2.6-2.6 2.6a2.603 2.603 0 01-2.6-2.6c0-1.433 1.167-2.6 2.6-2.6zM23.4 3.467a.868.868 0 000-1.734.868.868 0 000 1.734zM9.533 26a.868.868 0 10-.001-1.735A.868.868 0 009.533 26zM1.734 12.293V8.667c0-.231.09-.451.253-.613l6.067-6.067a.864.864 0 01.613-.254h4.493A2.596 2.596 0 0115.6 0c1.434 0 2.6 1.167 2.6 2.6s-1.166 2.6-2.6 2.6a2.596 2.596 0 01-2.44-1.733H9.026l-5.56 5.558v3.268a2.596 2.596 0 011.734 2.44c0 1.433-1.166 2.6-2.6 2.6a2.603 2.603 0 01-2.6-2.6c0-1.128.727-2.082 1.734-2.44zM15.6 3.467a.868.868 0 000-1.734.868.868 0 000 1.734zM2.6 15.6a.867.867 0 10-.001-1.735A.867.867 0 002.6 15.6zm11.266 31.36V34.507a2.597 2.597 0 01-1.732-2.44c0-1.434 1.166-2.6 2.6-2.6 1.128 0 2.081.726 2.44 1.733h8.986a2.596 2.596 0 012.44-1.734c1.129 0 2.082.727 2.44 1.733h5.001l3.22-3.22a2.556 2.556 0 01-.26-1.113c0-1.433 1.166-2.6 2.6-2.6 1.433 0 2.6 1.167 2.6 2.6 0 1.434-1.167 2.6-2.6 2.6-.401 0-.776-.098-1.114-.26l-3.474 3.473a.864.864 0 01-.613.254h-5.36a2.597 2.597 0 01-2.44 1.733 2.597 2.597 0 01-2.44-1.733h-8.987a2.597 2.597 0 01-1.574 1.574V46.96a2.596 2.596 0 011.734 2.44c0 1.434-1.167 2.6-2.6 2.6a2.603 2.603 0 01-2.6-2.6c0-1.128.727-2.082 1.733-2.44zM41.6 27.732a.868.868 0 10-.001-1.735.868.868 0 00.001 1.735zm-13 5.2a.868.868 0 000-1.733.868.868 0 000 1.733zM14.733 50.266a.868.868 0 000-1.733.868.868 0 000 1.733zm0-17.333a.868.868 0 000-1.733.867.867 0 000 1.733z" fill="#00B2FF"/><path d="M18.2 17.492v-2.759c0-.23.091-.45.254-.613L28.861 3.714a2.558 2.558 0 01-.26-1.114c0-1.433 1.166-2.6 2.6-2.6 1.128 0 2.081.727 2.44 1.733h3.626c.478 0 .867.388.867.867v2.241l3.22 3.22a2.549 2.549 0 011.113-.261c1.433 0 2.6 1.166 2.6 2.6 0 1.433-1.167 2.6-2.6 2.6a2.603 2.603 0 01-2.6-2.6c0-.4.098-.775.26-1.114l-3.473-3.473A.863.863 0 0136.4 5.2V3.467h-2.76A2.597 2.597 0 0131.2 5.2c-.4 0-.775-.098-1.113-.261L19.934 15.092v2.4a2.596 2.596 0 011.733 2.441c0 1.433-1.167 2.6-2.6 2.6a2.603 2.603 0 01-2.6-2.6c0-1.128.727-2.082 1.733-2.44zm24.267-6.226a.868.868 0 000-1.733.868.868 0 000 1.734zM31.2 3.467a.868.868 0 10-.001-1.734.868.868 0 00.001 1.735zM19.067 20.8a.868.868 0 000-1.734.868.868 0 000 1.734z" fill="#00B2FF"/><path d="M20.8 24.266c1.128 0 2.082.727 2.44 1.734h10.201l4.946-4.946A.864.864 0 0139 20.8h9.175l2.092-2.092v-7.083L43.58 4.94c-.338.163-.713.26-1.113.26a2.603 2.603 0 01-2.6-2.599c0-1.433 1.166-2.6 2.6-2.6 1.433 0 2.6 1.167 2.6 2.6 0 .4-.098.775-.261 1.114l6.94 6.94a.863.863 0 01.254.613v7.8c0 .23-.091.45-.254.612l-2.6 2.6a.864.864 0 01-.613.254H39.36l-4.946 4.946a.864.864 0 01-.613.254H23.24a2.596 2.596 0 01-2.44 1.733 2.603 2.603 0 01-2.6-2.6c0-1.433 1.166-2.6 2.6-2.6zM42.467 1.733a.868.868 0 10.001 1.735.868.868 0 00-.001-1.735zm-21.667 26a.868.868 0 000-1.733.868.868 0 000 1.733zM2.6 20.8c.4 0 .775.098 1.114.26l3.22-3.219v-5A2.596 2.596 0 015.2 10.4c0-1.434 1.167-2.6 2.6-2.6s2.6 1.166 2.6 2.6a2.596 2.596 0 01-1.733 2.44v5.36c0 .23-.091.45-.254.613l-3.474 3.473c.163.339.261.713.261 1.114a2.597 2.597 0 01-1.733 2.44v.668l6.679 6.679a.863.863 0 01.254.613v1.026a2.596 2.596 0 011.733 2.44 2.596 2.596 0 01-1.733 2.44v2.054a2.596 2.596 0 011.733 2.44c0 1.434-1.166 2.6-2.6 2.6a2.603 2.603 0 01-2.6-2.6c0-1.128.727-2.082 1.734-2.44v-2.053a2.596 2.596 0 01-1.734-2.44c0-1.13.727-2.083 1.734-2.441v-.668l-6.68-6.679a.863.863 0 01-.254-.613V25.84A2.597 2.597 0 010 23.4c0-1.434 1.167-2.6 2.6-2.6zm5.2-9.534a.867.867 0 10-.002-1.734.867.867 0 00.002 1.735zm1.733 33.8a.868.868 0 000-1.733.867.867 0 000 1.733zm0-6.933a.868.868 0 000-1.733.867.867 0 000 1.733zM2.6 24.266a.867.867 0 10-.002-1.735.867.867 0 00.002 1.735z" fill="#00B2FF"/></symbol><symbol id="icon-logo-footer"><path d="M76.936 24.337c0-.724-.188-1.27-.562-1.636-.366-.374-1.038-.76-2.014-1.16-1.782-.675-3.064-1.464-3.845-2.368-.782-.911-1.172-1.985-1.172-3.222 0-1.498.529-2.698 1.587-3.601 1.066-.912 2.417-1.368 4.052-1.368 1.09 0 2.063.232 2.918.696a4.708 4.708 0 011.965 1.941c.464.838.696 1.79.696 2.857h-3.577c0-.83-.179-1.461-.537-1.892-.35-.44-.858-.66-1.526-.66-.626 0-1.115.188-1.465.562-.35.366-.524.862-.524 1.49 0 .487.195.93.586 1.33.39.39 1.082.797 2.075 1.22 1.733.627 2.99 1.396 3.772 2.308.79.911 1.184 2.07 1.184 3.479 0 1.546-.493 2.754-1.477 3.625-.985.87-2.324 1.306-4.016 1.306-1.148 0-2.194-.236-3.138-.708a5.35 5.35 0 01-2.221-2.026c-.53-.88-.794-1.917-.794-3.113h3.601c0 1.025.2 1.77.599 2.234.398.464 1.05.696 1.953.696 1.253 0 1.88-.664 1.88-1.99zm11.157 4.907c-1.774 0-3.158-.529-4.15-1.587-.993-1.058-1.49-2.571-1.49-4.54v-1.05c0-2.084.456-3.691 1.367-4.822.912-1.132 2.218-1.697 3.919-1.697 1.66 0 2.91.533 3.747 1.599.838 1.058 1.266 2.629 1.282 4.712v1.697h-6.873c.05.976.265 1.692.648 2.148.382.448.972.671 1.77.671 1.155 0 2.12-.394 2.893-1.184l1.355 2.088c-.424.586-1.038 1.062-1.844 1.428a6.388 6.388 0 01-2.624.537zM85.92 21.14h3.454v-.318c-.016-.79-.146-1.387-.39-1.794-.244-.407-.667-.61-1.27-.61-.602 0-1.041.215-1.318.646-.269.432-.427 1.123-.476 2.076zm15.32-2.014l-1.148-.098c-.944 0-1.583.415-1.916 1.245V29h-3.467V15.792h3.26l.097 1.428c.545-1.115 1.298-1.672 2.258-1.672.391 0 .708.053.952.159l-.036 3.418zm6.335 4.992l1.673-8.325h3.601L109.223 29h-3.296l-3.637-13.208h3.613l1.672 8.325zM118.098 29h-3.467V15.792h3.467V29zm-3.626-16.626c0-.537.171-.976.513-1.318.342-.342.797-.513 1.367-.513s1.025.17 1.367.513c.342.342.513.78.513 1.318 0 .529-.171.968-.513 1.318-.333.35-.789.525-1.367.525s-1.038-.175-1.379-.525c-.334-.35-.501-.789-.501-1.318zm11.072 14.001c1.001 0 1.51-.65 1.526-1.953h3.247c-.016 1.44-.46 2.604-1.331 3.492-.87.887-1.993 1.33-3.369 1.33-1.701 0-2.999-.529-3.894-1.587-.895-1.058-1.351-2.616-1.367-4.675v-1.05c0-2.075.439-3.658 1.318-4.748.887-1.09 2.194-1.636 3.919-1.636 1.456 0 2.604.451 3.442 1.355.838.895 1.266 2.169 1.282 3.82h-3.247c-.008-.74-.13-1.31-.366-1.708-.236-.4-.627-.599-1.172-.599-.602 0-1.034.216-1.294.648-.261.423-.399 1.249-.415 2.477v1.343c0 1.075.053 1.827.158 2.259.106.423.281.736.525.94.244.195.59.293 1.038.293zm12.06 2.87c-1.774 0-3.157-.53-4.15-1.588-.993-1.058-1.489-2.571-1.489-4.54v-1.05c0-2.084.456-3.691 1.367-4.822.911-1.132 2.218-1.697 3.918-1.697 1.661 0 2.91.533 3.748 1.599.838 1.058 1.266 2.629 1.282 4.712v1.697h-6.873c.049.976.265 1.692.647 2.148.383.448.973.671 1.77.671 1.156 0 2.12-.394 2.893-1.184l1.355 2.088c-.423.586-1.037 1.062-1.843 1.428a6.388 6.388 0 01-2.625.537zm-2.172-8.106h3.454v-.318c-.016-.79-.146-1.387-.39-1.794-.245-.407-.668-.61-1.27-.61s-1.042.215-1.318.646c-.269.432-.428 1.123-.476 2.076zM150.166 29V11.227h4.699c2.075 0 3.727.659 4.956 1.977 1.237 1.319 1.868 3.125 1.892 5.42v2.88c0 2.336-.618 4.172-1.855 5.506-1.229 1.327-2.926 1.99-5.09 1.99h-4.602zm3.588-14.783v11.804h1.075c1.196 0 2.038-.313 2.526-.94.489-.634.745-1.725.77-3.27v-3.09c0-1.66-.232-2.815-.696-3.466-.464-.66-1.254-1.005-2.368-1.038h-1.307zm15.711 15.027c-1.774 0-3.158-.529-4.151-1.587-.992-1.058-1.489-2.571-1.489-4.54v-1.05c0-2.084.456-3.691 1.367-4.822.912-1.132 2.218-1.697 3.919-1.697 1.66 0 2.909.533 3.747 1.599.839 1.058 1.266 2.629 1.282 4.712v1.697h-6.872c.048.976.264 1.692.647 2.148.382.448.972.671 1.77.671 1.155 0 2.12-.394 2.893-1.184l1.355 2.088c-.424.586-1.038 1.062-1.844 1.428a6.383 6.383 0 01-2.624.537zm-2.173-8.105h3.455v-.318c-.017-.79-.147-1.387-.391-1.794-.244-.407-.667-.61-1.27-.61-.602 0-1.041.215-1.318.646-.268.432-.427 1.123-.476 2.076zm12.964 2.978l1.672-8.325h3.601L181.904 29h-3.296l-3.638-13.208h3.613l1.673 8.325zM190.778 29h-3.466V15.792h3.466V29zm-3.625-16.626c0-.537.171-.976.513-1.318.341-.342.797-.513 1.367-.513.569 0 1.025.17 1.367.513.342.342.513.78.513 1.318 0 .529-.171.968-.513 1.318-.334.35-.789.525-1.367.525s-1.038-.175-1.38-.525c-.333-.35-.5-.789-.5-1.318zm11.072 14.001c1.001 0 1.509-.65 1.525-1.953h3.248c-.017 1.44-.46 2.604-1.331 3.492-.871.887-1.994 1.33-3.369 1.33-1.701 0-2.999-.529-3.894-1.587-.895-1.058-1.351-2.616-1.367-4.675v-1.05c0-2.075.439-3.658 1.318-4.748.887-1.09 2.193-1.636 3.918-1.636 1.457 0 2.605.451 3.443 1.355.838.895 1.265 2.169 1.282 3.82h-3.248c-.008-.74-.13-1.31-.366-1.708-.236-.4-.626-.599-1.172-.599-.602 0-1.033.216-1.294.648-.26.423-.398 1.249-.415 2.477v1.343c0 1.075.053 1.827.159 2.259.106.423.281.736.525.94.244.195.59.293 1.038.293zm12.06 2.87c-1.774 0-3.157-.53-4.15-1.588-.993-1.058-1.489-2.571-1.489-4.54v-1.05c0-2.084.455-3.691 1.367-4.822.911-1.132 2.217-1.697 3.918-1.697 1.66 0 2.909.533 3.748 1.599.838 1.058 1.265 2.629 1.281 4.712v1.697h-6.872c.049.976.264 1.692.647 2.148.382.448.972.671 1.77.671 1.155 0 2.12-.394 2.893-1.184l1.355 2.088c-.423.586-1.038 1.062-1.843 1.428a6.392 6.392 0 01-2.625.537zm-2.173-8.106h3.455v-.318c-.016-.79-.147-1.387-.391-1.794-.244-.407-.667-.61-1.269-.61-.602 0-1.042.215-1.319.646-.268.432-.427 1.123-.476 2.076z" fill="#203C42"/><path d="M70.947 44.96l1.29-4.3h1.517l-2.52 7.3c-.386 1.067-1.043 1.6-1.968 1.6a2.55 2.55 0 01-.686-.105v-1.102l.27.018c.359 0 .629-.066.808-.2.184-.128.328-.347.434-.655l.205-.545-2.227-6.31h1.536l1.341 4.3zm7.395.288l1.875-4.588h1.781V47h-1.424v-4.195L78.828 47h-.967l-1.752-4.219V47h-1.423v-6.34h1.792l1.864 4.588zM88.97 47h-1.424v-2.56H85.08V47h-1.424v-6.34h1.424v2.643h2.467V40.66h1.424V47zm3.052-4.324h1.395c.52 0 .973.09 1.36.27.386.179.679.431.878.755.203.324.305.701.305 1.131 0 .652-.23 1.176-.692 1.57-.46.395-1.074.594-1.84.598H90.6v-6.34h1.424v2.016zM98.44 47h-1.423v-6.34h1.423V47zm-6.416-3.182v2.045h1.39c.347 0 .62-.086.82-.258.203-.175.304-.423.304-.744 0-.32-.1-.572-.299-.755-.195-.188-.46-.284-.797-.288h-1.418zm10.916 3.3c-.902 0-1.634-.284-2.197-.85-.558-.57-.838-1.328-.838-2.274v-.176c0-.633.121-1.197.364-1.693.246-.5.589-.889 1.031-1.166a2.715 2.715 0 011.476-.416c.864 0 1.53.275 1.998.826.473.55.709 1.33.709 2.338v.574h-4.142c.043.524.217.938.521 1.242.309.305.696.457 1.16.457.653 0 1.184-.263 1.594-.79l.768.732a2.58 2.58 0 01-1.02.885c-.422.207-.896.31-1.424.31zm-.169-5.433c-.391 0-.708.137-.95.41-.238.274-.39.655-.457 1.143h2.713v-.105c-.031-.477-.158-.836-.381-1.078-.222-.246-.531-.37-.925-.37zm11.8.106h-2.056V47h-1.424v-5.209h-2.033v-1.13h5.513v1.13zm3.369 5.326c-.902 0-1.634-.283-2.197-.85-.558-.57-.838-1.328-.838-2.273v-.176c0-.633.121-1.197.364-1.693.246-.5.589-.889 1.031-1.166a2.715 2.715 0 011.476-.416c.864 0 1.53.275 1.998.826.473.55.709 1.33.709 2.338v.574h-4.142c.043.524.217.938.521 1.242.309.305.696.457 1.16.457.653 0 1.184-.263 1.594-.79l.768.732a2.58 2.58 0 01-1.02.885c-.422.207-.896.31-1.424.31zm-.169-5.431c-.391 0-.708.136-.95.41-.238.273-.39.654-.457 1.142h2.713v-.105c-.031-.477-.158-.836-.381-1.078-.222-.246-.531-.37-.925-.37zm6.099 1.06l1.207-2.086h1.582l-1.939 3.123L126.723 47h-1.571l-1.265-2.168-1.26 2.168h-1.582l2.004-3.217-1.934-3.123h1.571l1.183 2.086zM132.998 47h-1.424v-2.56h-2.467V47h-1.423v-6.34h1.423v2.643h2.467V40.66h1.424V47zm1.254-3.228c0-.622.123-1.18.369-1.676.246-.5.592-.883 1.037-1.149.446-.27.957-.404 1.535-.404.856 0 1.549.275 2.08.826.536.55.825 1.281.868 2.191l.005.334c0 .626-.121 1.184-.363 1.676a2.638 2.638 0 01-1.031 1.143c-.445.27-.961.404-1.547.404-.894 0-1.611-.297-2.15-.89-.535-.598-.803-1.393-.803-2.385v-.07zm1.424.123c0 .652.135 1.164.404 1.535.27.367.645.55 1.125.55.481 0 .854-.187 1.119-.562.27-.375.405-.924.405-1.646 0-.641-.139-1.149-.417-1.524a1.31 1.31 0 00-1.119-.563c-.464 0-.834.186-1.107.557-.274.367-.41.918-.41 1.653zm10.969-3.235V47h-1.424v-5.191h-1.793l-.117 2.209c-.075 1.062-.28 1.826-.616 2.29-.332.462-.841.692-1.529.692h-.439l-.006-1.184.293-.029c.312-.043.539-.232.679-.568.145-.34.237-.957.276-1.852l.117-2.707h4.559zm1.248 3.112c0-.622.123-1.18.369-1.676.246-.5.592-.883 1.037-1.149.445-.27.957-.404 1.535-.404.855 0 1.549.275 2.08.826.535.55.824 1.281.867 2.191l.006.334c0 .626-.121 1.184-.363 1.676a2.638 2.638 0 01-1.031 1.143c-.446.27-.961.404-1.547.404-.895 0-1.612-.297-2.151-.89-.535-.598-.802-1.393-.802-2.385v-.07zm1.423.123c0 .652.135 1.164.405 1.535.269.367.644.55 1.125.55.48 0 .853-.187 1.119-.562.269-.375.404-.924.404-1.646 0-.641-.139-1.149-.416-1.524a1.31 1.31 0 00-1.119-.563c-.465 0-.834.186-1.107.557-.274.367-.411.918-.411 1.653zm9.897-2.086h-2.754V47h-1.418v-6.34h4.172v1.149zm4.764-1.149h1.418V47h-1.418v-4.23L161.492 47h-1.418v-6.34h1.418v4.23l2.485-4.23zm6.89 0h1.418V47h-1.418v-4.23L168.383 47h-1.418v-6.34h1.418v4.23l2.484-4.23z" fill="#788891"/><path d="M32.066 13.867c1.129 0 2.082.727 2.441 1.733h8.986a2.596 2.596 0 012.44-1.733c1.434 0 2.6 1.166 2.6 2.6 0 1.433-1.166 2.6-2.6 2.6a2.597 2.597 0 01-2.44-1.734h-8.987a2.597 2.597 0 01-2.44 1.733 2.603 2.603 0 01-2.6-2.6c0-1.433 1.167-2.6 2.6-2.6zm13.867 3.466a.868.868 0 000-1.733.868.868 0 000 1.733zm-13.867 0a.868.868 0 000-1.733.867.867 0 000 1.733z" fill="#00B2FF"/><path d="M25.133 19.226v-5.36c0-.23.091-.45.254-.612l3.467-3.467a.864.864 0 01.613-.254h2.76a2.596 2.596 0 012.44-1.733c1.433 0 2.6 1.166 2.6 2.6 0 1.433-1.167 2.6-2.6 2.6a2.596 2.596 0 01-2.44-1.733h-2.402l-2.958 2.958v5a2.596 2.596 0 011.733 2.441c0 1.434-1.167 2.6-2.6 2.6a2.603 2.603 0 01-2.6-2.6c0-1.128.727-2.081 1.733-2.44zm9.534-7.96a.868.868 0 10-.002-1.735.868.868 0 00.002 1.736zM26 22.534a.867.867 0 10-.002-1.735.867.867 0 00.002 1.735zm-16.467-.001c.4 0 .775.098 1.114.26l1.486-1.485V13c0-.23.091-.45.254-.613l8.674-8.673A2.556 2.556 0 0120.8 2.6c0-1.433 1.166-2.6 2.6-2.6C24.834 0 26 1.167 26 2.6s-1.166 2.6-2.6 2.6c-.4 0-.775-.098-1.114-.261l-8.42 8.42v8.307c0 .23-.09.451-.253.613l-1.74 1.74c.162.34.26.714.26 1.114 0 1.433-1.166 2.6-2.6 2.6a2.603 2.603 0 01-2.6-2.6c0-1.433 1.167-2.6 2.6-2.6zM23.4 3.467a.868.868 0 000-1.734.868.868 0 000 1.734zM9.533 26a.868.868 0 10-.001-1.735A.868.868 0 009.533 26zM1.734 12.293V8.667c0-.231.09-.451.253-.613l6.067-6.067a.864.864 0 01.613-.254h4.493A2.596 2.596 0 0115.6 0c1.434 0 2.6 1.167 2.6 2.6s-1.166 2.6-2.6 2.6a2.596 2.596 0 01-2.44-1.733H9.026l-5.56 5.558v3.268a2.596 2.596 0 011.734 2.44c0 1.433-1.166 2.6-2.6 2.6a2.603 2.603 0 01-2.6-2.6c0-1.128.727-2.082 1.734-2.44zM15.6 3.467a.868.868 0 000-1.734.868.868 0 000 1.734zM2.6 15.6a.867.867 0 10-.001-1.735A.867.867 0 002.6 15.6zm11.266 31.36V34.507a2.597 2.597 0 01-1.732-2.44c0-1.434 1.166-2.6 2.6-2.6 1.128 0 2.081.726 2.44 1.733h8.986a2.596 2.596 0 012.44-1.734c1.129 0 2.082.727 2.44 1.733h5.001l3.22-3.22a2.556 2.556 0 01-.26-1.113c0-1.433 1.166-2.6 2.6-2.6 1.433 0 2.6 1.167 2.6 2.6 0 1.434-1.167 2.6-2.6 2.6-.401 0-.776-.098-1.114-.26l-3.474 3.473a.864.864 0 01-.613.254h-5.36a2.597 2.597 0 01-2.44 1.733 2.597 2.597 0 01-2.44-1.733h-8.987a2.597 2.597 0 01-1.574 1.574V46.96a2.596 2.596 0 011.734 2.44c0 1.434-1.167 2.6-2.6 2.6a2.603 2.603 0 01-2.6-2.6c0-1.128.727-2.082 1.733-2.44zM41.6 27.732a.868.868 0 10-.001-1.735.868.868 0 00.001 1.735zm-13 5.2a.868.868 0 000-1.733.868.868 0 000 1.733zM14.733 50.266a.868.868 0 000-1.733.868.868 0 000 1.733zm0-17.333a.868.868 0 000-1.733.867.867 0 000 1.733z" fill="#00B2FF"/><path d="M18.2 17.492v-2.759c0-.23.091-.45.254-.613L28.861 3.714a2.558 2.558 0 01-.26-1.114c0-1.433 1.166-2.6 2.6-2.6 1.128 0 2.081.727 2.44 1.733h3.626c.478 0 .867.388.867.867v2.241l3.22 3.22a2.549 2.549 0 011.113-.261c1.433 0 2.6 1.166 2.6 2.6 0 1.433-1.167 2.6-2.6 2.6a2.603 2.603 0 01-2.6-2.6c0-.4.098-.775.26-1.114l-3.473-3.473A.863.863 0 0136.4 5.2V3.467h-2.76A2.597 2.597 0 0131.2 5.2c-.4 0-.775-.098-1.113-.261L19.934 15.092v2.4a2.596 2.596 0 011.733 2.441c0 1.433-1.167 2.6-2.6 2.6a2.603 2.603 0 01-2.6-2.6c0-1.128.727-2.082 1.733-2.44zm24.267-6.226a.868.868 0 000-1.733.868.868 0 000 1.734zM31.2 3.467a.868.868 0 10-.001-1.734.868.868 0 00.001 1.735zM19.067 20.8a.868.868 0 000-1.734.868.868 0 000 1.734z" fill="#00B2FF"/><path d="M20.8 24.266c1.128 0 2.082.727 2.44 1.734h10.201l4.946-4.946A.864.864 0 0139 20.8h9.175l2.092-2.092v-7.083L43.58 4.94c-.338.163-.713.26-1.113.26a2.603 2.603 0 01-2.6-2.599c0-1.433 1.166-2.6 2.6-2.6 1.433 0 2.6 1.167 2.6 2.6 0 .4-.098.775-.261 1.114l6.94 6.94a.863.863 0 01.254.613v7.8c0 .23-.091.45-.254.612l-2.6 2.6a.864.864 0 01-.613.254H39.36l-4.946 4.946a.864.864 0 01-.613.254H23.24a2.596 2.596 0 01-2.44 1.733 2.603 2.603 0 01-2.6-2.6c0-1.433 1.166-2.6 2.6-2.6zM42.467 1.733a.868.868 0 10.001 1.735.868.868 0 00-.001-1.735zm-21.667 26a.868.868 0 000-1.733.868.868 0 000 1.733zM2.6 20.8c.4 0 .775.098 1.114.26l3.22-3.219v-5A2.596 2.596 0 015.2 10.4c0-1.434 1.167-2.6 2.6-2.6s2.6 1.166 2.6 2.6a2.596 2.596 0 01-1.733 2.44v5.36c0 .23-.091.45-.254.613l-3.474 3.473c.163.339.261.713.261 1.114a2.597 2.597 0 01-1.733 2.44v.668l6.679 6.679a.863.863 0 01.254.613v1.026a2.596 2.596 0 011.733 2.44 2.596 2.596 0 01-1.733 2.44v2.054a2.596 2.596 0 011.733 2.44c0 1.434-1.166 2.6-2.6 2.6a2.603 2.603 0 01-2.6-2.6c0-1.128.727-2.082 1.734-2.44v-2.053a2.596 2.596 0 01-1.734-2.44c0-1.13.727-2.083 1.734-2.441v-.668l-6.68-6.679a.863.863 0 01-.254-.613V25.84A2.597 2.597 0 010 23.4c0-1.434 1.167-2.6 2.6-2.6zm5.2-9.534a.867.867 0 10-.002-1.734.867.867 0 00.002 1.735zm1.733 33.8a.868.868 0 000-1.733.867.867 0 000 1.733zm0-6.933a.868.868 0 000-1.733.867.867 0 000 1.733zM2.6 24.266a.867.867 0 10-.002-1.735.867.867 0 00.002 1.735z" fill="#00B2FF"/></symbol><symbol id="icon-logo-m"><path d="M23.433 10.133c.825 0 1.522.532 1.784 1.267h6.566a1.897 1.897 0 011.784-1.267c1.047 0 1.9.853 1.9 1.9 0 1.048-.853 1.9-1.9 1.9a1.897 1.897 0 01-1.784-1.267h-6.567a1.897 1.897 0 01-1.783 1.267c-1.048 0-1.9-.852-1.9-1.9 0-1.047.853-1.9 1.9-1.9zm10.134 2.534a.634.634 0 10-.002-1.268.634.634 0 00.002 1.268zm-10.134 0a.634.634 0 10-.001-1.269.634.634 0 00.002 1.268z" fill="#00B2FF"/><path d="M18.367 14.05v-3.917a.63.63 0 01.185-.448l2.534-2.533a.632.632 0 01.447-.185h2.017A1.897 1.897 0 0125.333 5.7c1.048 0 1.9.852 1.9 1.9 0 1.047-.852 1.9-1.9 1.9a1.897 1.897 0 01-1.783-1.267h-1.754l-2.163 2.162v3.655a1.897 1.897 0 011.267 1.783c0 1.048-.852 1.9-1.9 1.9-1.047 0-1.9-.852-1.9-1.9 0-.825.531-1.521 1.267-1.783zm6.966-5.817a.634.634 0 100-1.268.634.634 0 000 1.268zM19 16.466a.634.634 0 100-1.268.634.634 0 000 1.268zm-12.033 0c.292 0 .566.072.814.191l1.086-1.086V9.5a.63.63 0 01.185-.448l6.339-6.338A1.87 1.87 0 0115.2 1.9c0-1.048.852-1.9 1.9-1.9 1.047 0 1.9.852 1.9 1.9 0 1.047-.852 1.9-1.9 1.9-.293 0-.566-.072-.814-.19l-6.153 6.152v6.071a.63.63 0 01-.185.448l-1.272 1.271c.12.248.19.522.19.814 0 1.048-.852 1.9-1.9 1.9-1.047 0-1.9-.852-1.9-1.9 0-1.047.853-1.9 1.9-1.9zM17.1 2.533a.634.634 0 10-.001-1.268.634.634 0 00.001 1.268zM6.967 19a.634.634 0 10-.002-1.268A.634.634 0 006.967 19zm-5.7-10.017v-2.65a.63.63 0 01.186-.448l4.433-4.433a.632.632 0 01.448-.185h3.283A1.897 1.897 0 0111.4 0c1.048 0 1.9.852 1.9 1.9 0 1.047-.852 1.9-1.9 1.9a1.897 1.897 0 01-1.783-1.267H6.596L2.534 6.595v2.388A1.897 1.897 0 013.8 10.767c0 1.047-.852 1.9-1.9 1.9-1.047 0-1.9-.853-1.9-1.9 0-.825.532-1.522 1.267-1.784zM11.4 2.533a.634.634 0 100-1.268.634.634 0 000 1.268zM1.9 11.4a.634.634 0 100-1.268.634.634 0 000 1.268zm8.233 22.917v-9.1a1.898 1.898 0 01-1.266-1.784c0-1.048.852-1.9 1.9-1.9.825 0 1.521.531 1.783 1.267h6.567a1.897 1.897 0 011.783-1.267c.825 0 1.522.531 1.784 1.267h3.654l2.353-2.353a1.87 1.87 0 01-.19-.814c0-1.047.852-1.9 1.9-1.9 1.047 0 1.9.852 1.9 1.9 0 1.047-.853 1.9-1.9 1.9a1.88 1.88 0 01-.814-.19l-2.539 2.538a.632.632 0 01-.448.185h-3.916a1.898 1.898 0 01-1.784 1.267 1.898 1.898 0 01-1.783-1.267H12.55a1.898 1.898 0 01-1.15 1.15v9.1a1.897 1.897 0 011.266 1.784c0 1.047-.852 1.9-1.9 1.9-1.047 0-1.9-.852-1.9-1.9 0-.825.532-1.521 1.267-1.783zM30.4 20.267a.634.634 0 100-1.268.634.634 0 000 1.267zm-9.5 3.8a.634.634 0 10-.001-1.269.634.634 0 00.001 1.268zM10.767 36.732a.634.634 0 10-.001-1.268.634.634 0 00.001 1.268zm0-12.667a.634.634 0 10-.001-1.268.634.634 0 00.001 1.268z" fill="#00B2FF"/><path d="M13.3 12.783v-2.016a.63.63 0 01.185-.448l7.605-7.605a1.868 1.868 0 01-.19-.814c0-1.048.852-1.9 1.9-1.9.824 0 1.521.531 1.783 1.267h2.65c.35 0 .633.283.633.633v1.638L30.22 5.89c.248-.12.521-.191.814-.191 1.048 0 1.9.852 1.9 1.9 0 1.047-.852 1.9-1.9 1.9-1.047 0-1.9-.853-1.9-1.9 0-.293.072-.566.19-.814l-2.538-2.538A.63.63 0 0126.6 3.8V2.533h-2.017A1.897 1.897 0 0122.8 3.8a1.87 1.87 0 01-.814-.19l-7.42 7.419v1.754a1.897 1.897 0 011.267 1.783c0 1.048-.852 1.9-1.9 1.9-1.047 0-1.9-.852-1.9-1.9 0-.824.532-1.52 1.267-1.783zm17.733-4.55a.634.634 0 10-.001-1.268.634.634 0 00.001 1.268zm-8.233-5.7a.634.634 0 10-.002-1.268.634.634 0 00.002 1.268zM13.933 15.2a.634.634 0 10-.001-1.268.634.634 0 00.001 1.268z" fill="#00B2FF"/><path d="M15.2 17.733c.825 0 1.521.531 1.784 1.267h7.454l3.614-3.615a.632.632 0 01.448-.185h6.705l1.528-1.53V8.496L31.847 3.61a1.87 1.87 0 01-.814.19c-1.047 0-1.9-.852-1.9-1.899 0-1.048.853-1.9 1.9-1.9 1.048 0 1.9.852 1.9 1.9 0 .293-.071.566-.19.814l5.071 5.071a.63.63 0 01.186.448v5.7a.63.63 0 01-.186.448l-1.9 1.9a.631.631 0 01-.447.185h-6.705l-3.614 3.615a.632.632 0 01-.448.185h-7.716a1.897 1.897 0 01-1.784 1.267c-1.047 0-1.9-.853-1.9-1.9s.852-1.9 1.9-1.9zM31.033 1.267a.634.634 0 10.002 1.268.634.634 0 00-.002-1.268zm-15.833 19a.634.634 0 10-.001-1.268.634.634 0 00.001 1.267zM1.9 15.2c.293 0 .567.071.814.19l2.353-2.352V9.383A1.897 1.897 0 013.801 7.6c0-1.048.852-1.9 1.9-1.9 1.047 0 1.9.852 1.9 1.9 0 .825-.532 1.521-1.267 1.783V13.3a.63.63 0 01-.186.448L3.61 16.286c.119.248.19.521.19.814 0 .824-.53 1.521-1.266 1.783v.488l4.881 4.88a.63.63 0 01.186.449v.75a1.897 1.897 0 011.266 1.783c0 .825-.531 1.521-1.266 1.783v1.5A1.897 1.897 0 018.867 32.3c0 1.048-.852 1.9-1.9 1.9-1.047 0-1.9-.852-1.9-1.9 0-.824.532-1.521 1.267-1.783v-1.5a1.897 1.897 0 01-1.267-1.784 1.9 1.9 0 011.267-1.784v-.487L1.453 20.08a.63.63 0 01-.186-.448v-.75A1.897 1.897 0 01.001 17.1c0-1.048.852-1.9 1.9-1.9zm3.8-6.967a.634.634 0 100-1.268.634.634 0 000 1.268zm1.267 24.7a.634.634 0 10-.001-1.268.634.634 0 00.001 1.268zm0-5.067a.634.634 0 10-.001-1.268.634.634 0 00.001 1.268zM1.901 17.733a.634.634 0 10-.002-1.268.634.634 0 00.002 1.268z" fill="#00B2FF"/></symbol><symbol id="icon-logo"><path d="M32.067 13.867c1.128 0 2.081.727 2.44 1.733h8.986a2.596 2.596 0 012.44-1.733c1.434 0 2.6 1.166 2.6 2.6 0 1.433-1.166 2.6-2.6 2.6a2.597 2.597 0 01-2.44-1.734h-8.987a2.597 2.597 0 01-2.44 1.733 2.603 2.603 0 01-2.6-2.6c0-1.433 1.167-2.6 2.6-2.6zm13.866 3.466a.868.868 0 000-1.733.867.867 0 000 1.733zm-13.866 0a.868.868 0 10-.002-1.735.868.868 0 00.002 1.735z" fill="#00B2FF"/><path d="M25.133 19.226v-5.36c0-.23.091-.45.254-.612l3.467-3.467a.864.864 0 01.613-.254h2.76a2.596 2.596 0 012.44-1.733c1.433 0 2.6 1.166 2.6 2.6 0 1.433-1.167 2.6-2.6 2.6a2.596 2.596 0 01-2.44-1.733h-2.402l-2.958 2.958v5a2.596 2.596 0 011.733 2.441c0 1.434-1.167 2.6-2.6 2.6a2.603 2.603 0 01-2.6-2.6c0-1.128.727-2.081 1.733-2.44zm9.534-7.96a.868.868 0 10-.002-1.735.868.868 0 00.002 1.736zM26 22.534a.867.867 0 10-.002-1.735.867.867 0 00.002 1.735zm-16.467-.001c.4 0 .775.098 1.114.26l1.486-1.485V13c0-.23.091-.45.254-.613l8.674-8.673A2.556 2.556 0 0120.8 2.6c0-1.433 1.166-2.6 2.6-2.6C24.834 0 26 1.167 26 2.6s-1.166 2.6-2.6 2.6c-.4 0-.775-.098-1.114-.261l-8.42 8.42v8.307c0 .23-.09.451-.253.613l-1.74 1.74c.162.34.26.714.26 1.114 0 1.433-1.166 2.6-2.6 2.6a2.603 2.603 0 01-2.6-2.6c0-1.433 1.167-2.6 2.6-2.6zM23.4 3.467a.868.868 0 000-1.734.868.868 0 000 1.734zM9.533 26a.868.868 0 10-.001-1.735A.868.868 0 009.533 26zm-7.8-13.707V8.667c0-.231.091-.451.254-.613l6.067-6.067a.864.864 0 01.613-.254h4.492A2.597 2.597 0 0115.6 0c1.433 0 2.6 1.167 2.6 2.6s-1.167 2.6-2.6 2.6a2.597 2.597 0 01-2.44-1.733H9.024L3.467 9.025v3.268a2.596 2.596 0 011.733 2.44c0 1.433-1.167 2.6-2.6 2.6a2.603 2.603 0 01-2.6-2.6c0-1.128.727-2.082 1.733-2.44zM15.6 3.467a.867.867 0 10-.002-1.735.867.867 0 00.002 1.735zM2.6 15.6a.867.867 0 10-.002-1.735A.867.867 0 002.6 15.6zm11.266 31.36V34.507a2.597 2.597 0 01-1.733-2.44c0-1.434 1.167-2.6 2.6-2.6 1.129 0 2.082.726 2.44 1.733h8.986a2.597 2.597 0 012.441-1.734c1.128 0 2.082.727 2.44 1.733h5.001l3.22-3.22A2.557 2.557 0 0139 26.867c0-1.433 1.166-2.6 2.6-2.6 1.433 0 2.6 1.167 2.6 2.6 0 1.434-1.167 2.6-2.6 2.6-.4 0-.775-.098-1.114-.26l-3.473 3.473a.864.864 0 01-.613.254h-5.36a2.597 2.597 0 01-2.44 1.733 2.597 2.597 0 01-2.44-1.733h-8.987a2.598 2.598 0 01-1.574 1.574V46.96a2.596 2.596 0 011.733 2.44c0 1.434-1.166 2.6-2.6 2.6a2.603 2.603 0 01-2.6-2.6c0-1.128.728-2.082 1.734-2.44zM41.6 27.732a.867.867 0 10-.002-1.735.867.867 0 00.002 1.735zm-13 5.2a.868.868 0 10-.002-1.735.868.868 0 00.002 1.735zM14.733 50.266a.868.868 0 000-1.733.868.868 0 000 1.733zm0-17.333a.868.868 0 000-1.733.868.868 0 000 1.733z" fill="#00B2FF"/><path d="M18.2 17.492v-2.759c0-.23.091-.45.254-.613L28.86 3.714A2.556 2.556 0 0128.6 2.6c0-1.433 1.166-2.6 2.6-2.6 1.128 0 2.082.727 2.44 1.733h3.627c.478 0 .866.388.866.867v2.241l3.22 3.22a2.556 2.556 0 011.114-.261c1.433 0 2.6 1.166 2.6 2.6 0 1.433-1.167 2.6-2.6 2.6a2.603 2.603 0 01-2.6-2.6c0-.4.098-.775.26-1.114l-3.473-3.473A.863.863 0 0136.4 5.2V3.467h-2.76A2.596 2.596 0 0131.2 5.2c-.4 0-.775-.098-1.114-.261L19.933 15.092v2.4a2.596 2.596 0 011.734 2.441c0 1.433-1.167 2.6-2.6 2.6a2.603 2.603 0 01-2.6-2.6c0-1.128.727-2.082 1.733-2.44zm24.267-6.226a.868.868 0 10-.002-1.735.868.868 0 00.002 1.736zM31.2 3.467a.868.868 0 000-1.733.868.868 0 000 1.734zM19.067 20.8a.868.868 0 10-.002-1.735.868.868 0 00.002 1.735z" fill="#00B2FF"/><path d="M20.8 24.266c1.128 0 2.082.727 2.44 1.734h10.201l4.946-4.946A.864.864 0 0139 20.8h9.175l2.092-2.092v-7.083L43.58 4.94c-.338.163-.713.26-1.113.26a2.603 2.603 0 01-2.6-2.599c0-1.433 1.166-2.6 2.6-2.6 1.433 0 2.6 1.167 2.6 2.6 0 .4-.098.775-.261 1.114l6.94 6.94a.863.863 0 01.254.613v7.8c0 .23-.091.45-.254.612l-2.6 2.6a.864.864 0 01-.613.254H39.36l-4.946 4.946a.864.864 0 01-.613.254H23.24a2.596 2.596 0 01-2.44 1.733 2.603 2.603 0 01-2.6-2.6c0-1.433 1.166-2.6 2.6-2.6zM42.467 1.733a.868.868 0 10.001 1.735.868.868 0 00-.001-1.735zm-21.667 26a.868.868 0 000-1.733.868.868 0 000 1.733zM2.6 20.8c.4 0 .775.098 1.114.26l3.22-3.219v-5A2.596 2.596 0 015.2 10.4c0-1.434 1.167-2.6 2.6-2.6s2.6 1.166 2.6 2.6a2.596 2.596 0 01-1.733 2.44v5.36c0 .23-.091.45-.254.613l-3.474 3.473c.163.339.261.713.261 1.114a2.597 2.597 0 01-1.733 2.44v.668l6.679 6.679a.863.863 0 01.254.613v1.026a2.596 2.596 0 011.733 2.44 2.596 2.596 0 01-1.733 2.44v2.054a2.596 2.596 0 011.733 2.44c0 1.434-1.166 2.6-2.6 2.6a2.603 2.603 0 01-2.6-2.6c0-1.128.727-2.082 1.734-2.44v-2.053a2.596 2.596 0 01-1.734-2.44c0-1.13.727-2.083 1.734-2.441v-.668l-6.68-6.679a.863.863 0 01-.254-.613V25.84A2.597 2.597 0 010 23.4c0-1.434 1.167-2.6 2.6-2.6zm5.2-9.534a.867.867 0 10-.002-1.734.867.867 0 00.002 1.735zm1.733 33.8a.868.868 0 000-1.733.867.867 0 000 1.733zm0-6.933a.868.868 0 000-1.733.867.867 0 000 1.733zM2.6 24.266a.867.867 0 10-.002-1.735.867.867 0 00.002 1.735z" fill="#00B2FF"/></symbol><symbol id="icon-odnoklassniki"><path d="M13.851 10.957c1.016 0 1.806-.836 1.787-1.746.019-.91-.752-1.764-1.768-1.764-.978 0-1.787.78-1.787 1.746 0 .965.79 1.764 1.768 1.764z" fill="#CDCDCD"/><path d="M13.701 0C6.441 0 .535 5.831.535 13c0 7.187 5.906 13 13.166 13 7.279 0 13.166-5.831 13.166-13C26.885 5.83 20.98 0 13.7 0zm.188 4.921c2.37 0 4.326 1.932 4.307 4.29 0 2.377-1.975 4.29-4.382 4.253-2.37-.037-4.27-1.95-4.27-4.271 0-2.359 1.938-4.272 4.345-4.272zm4.834 10.029c0 .037-.019.056-.019.093a1.213 1.213 0 01-.564.873c-.207.13-.433.26-.659.371a8.55 8.55 0 01-1.786.65c-.075.019-.075.019-.02.074l1.035 1.022 1.317 1.3c.62.613.451 1.634-.339 2.006-.131.074-.282.092-.432.13h-.245c-.019 0-.037 0-.037-.02-.301-.036-.546-.185-.771-.39l-2.276-2.246c-.057-.056-.057-.056-.113 0l-2.295 2.265c-.131.13-.263.223-.432.298-.113.055-.245.074-.358.092h-.244c-.038 0-.057-.018-.094-.018-.508-.093-.847-.372-.997-.854-.15-.483-.038-.91.32-1.263l.94-.929 1.392-1.374c.056-.056.056-.056-.019-.074-.019 0-.056-.019-.075-.019a8.182 8.182 0 01-2.351-.984c-.433-.279-.64-.687-.583-1.189.094-.928 1.147-1.43 1.937-.928.15.092.282.167.451.241a5.413 5.413 0 002.746.557c.47-.018.94-.111 1.411-.26.451-.148.846-.353 1.26-.575.677-.39 1.561-.075 1.825.65.037.11.056.204.075.315v.186z" fill="#CDCDCD"/></symbol><symbol id="icon-phone" viewBox="0 0 25 24">
<path d="M19.6447 14.8671C19.1526 14.3555 18.5591 14.082 17.9301 14.082C17.3062 14.082 16.7076 14.3505 16.1952 14.8621L14.5922 16.4576C14.4603 16.3867 14.3285 16.3209 14.2016 16.255C14.019 16.1639 13.8465 16.0777 13.6994 15.9866C12.1979 15.0343 10.8333 13.7933 9.52458 12.1875C8.89048 11.3872 8.46437 10.7135 8.15494 10.0297C8.5709 9.6498 8.95643 9.2547 9.33181 8.87479C9.47385 8.73296 9.61588 8.58607 9.75792 8.44424C10.8232 7.38051 10.8232 6.00273 9.75792 4.93901L8.37306 3.55616C8.21581 3.39913 8.05348 3.23704 7.9013 3.07495C7.59693 2.7609 7.27735 2.43671 6.94762 2.13279C6.45557 1.64652 5.86713 1.38818 5.24826 1.38818C4.62938 1.38818 4.0308 1.64652 3.52353 2.13279C3.51845 2.13786 3.51845 2.13786 3.51338 2.14292L1.78865 3.88034C1.13934 4.52871 0.76903 5.31891 0.687866 6.23574C0.56612 7.71483 1.00238 9.09261 1.33718 9.99424C2.15896 12.2078 3.38656 14.2593 5.21782 16.4576C7.43968 19.1068 10.113 21.1988 13.1668 22.6729C14.3335 23.225 15.8909 23.8784 17.6308 23.9898C17.7373 23.9949 17.8489 24 17.9504 24C19.1222 24 20.1063 23.5796 20.8774 22.7438C20.8824 22.7336 20.8926 22.7286 20.8977 22.7184C21.1614 22.3993 21.4658 22.1106 21.7854 21.8016C22.0035 21.5939 22.2267 21.3761 22.4448 21.1482C22.947 20.6264 23.2108 20.0186 23.2108 19.3956C23.2108 18.7675 22.942 18.1647 22.4296 17.6581L19.6447 14.8671ZM21.4607 20.201C21.4557 20.201 21.4557 20.206 21.4607 20.201C21.2629 20.4137 21.06 20.6062 20.8419 20.8189C20.5121 21.133 20.1773 21.4622 19.8628 21.832C19.3505 22.3791 18.7468 22.6374 17.9555 22.6374C17.8794 22.6374 17.7982 22.6374 17.7221 22.6323C16.2155 22.5361 14.8154 21.9485 13.7654 21.447C10.8942 20.0591 8.37306 18.0887 6.27802 15.5915C4.54822 13.5096 3.39164 11.5848 2.62565 9.5181C2.15389 8.25682 1.98141 7.27414 2.05751 6.34718C2.10823 5.75453 2.33651 5.26319 2.75754 4.84276L4.48735 3.11547C4.73591 2.88247 4.99969 2.75583 5.2584 2.75583C5.57799 2.75583 5.83669 2.94832 5.99902 3.11041C6.0041 3.11547 6.00917 3.12054 6.01424 3.1256C6.32368 3.41433 6.6179 3.71319 6.92733 4.03231C7.08459 4.1944 7.24692 4.35649 7.40924 4.52365L8.7941 5.90649C9.33181 6.44342 9.33181 6.93983 8.7941 7.47675C8.64699 7.62365 8.50495 7.77054 8.35785 7.91237C7.93174 8.348 7.52592 8.75323 7.08459 9.14832C7.07444 9.15846 7.0643 9.16352 7.05922 9.17365C6.62297 9.60927 6.70413 10.0348 6.79544 10.3235C6.80051 10.3387 6.80559 10.3539 6.81066 10.3691C7.17083 11.2403 7.6781 12.0609 8.44915 13.0385L8.45423 13.0436C9.8543 14.7658 11.3305 16.1081 12.9588 17.1364C13.1668 17.2681 13.3799 17.3745 13.5828 17.4758C13.7654 17.567 13.9379 17.6531 14.085 17.7443C14.1053 17.7544 14.1255 17.7696 14.1458 17.7797C14.3183 17.8658 14.4806 17.9063 14.648 17.9063C15.0691 17.9063 15.3329 17.6429 15.4191 17.5568L17.154 15.8245C17.3264 15.6523 17.6004 15.4446 17.92 15.4446C18.2345 15.4446 18.4932 15.6421 18.6504 15.8143C18.6555 15.8194 18.6555 15.8194 18.6606 15.8245L21.4557 18.6155C21.9781 19.1322 21.9781 19.664 21.4607 20.201Z" fill="#00B2FF"/>
<path d="M13.6384 5.70896C14.9675 5.93184 16.1748 6.55994 17.1386 7.52236C18.1024 8.48478 18.7264 9.69034 18.9546 11.0175C19.0104 11.3518 19.2996 11.5848 19.6293 11.5848C19.6699 11.5848 19.7054 11.5797 19.746 11.5747C20.1214 11.5139 20.3699 11.1593 20.3091 10.7845C20.0351 9.17874 19.2742 7.71484 18.1126 6.55488C16.9509 5.39491 15.4849 4.6351 13.8768 4.36157C13.5014 4.30079 13.1514 4.54899 13.0855 4.91876C13.0195 5.28853 13.263 5.64817 13.6384 5.70896Z" fill="#00B2FF"/>
<path d="M24.6564 10.5869C24.2049 7.94279 22.957 5.53674 21.0395 3.62203C19.122 1.70732 16.7124 0.461243 14.0645 0.0104253C13.6942 -0.0554245 13.3442 0.197844 13.2782 0.567616C13.2173 0.942453 13.4659 1.29196 13.8413 1.35781C16.2052 1.75798 18.3611 2.87742 20.0757 4.58445C21.7903 6.29654 22.9063 8.44933 23.307 10.8098C23.3628 11.1441 23.652 11.3771 23.9817 11.3771C24.0223 11.3771 24.0578 11.372 24.0984 11.367C24.4687 11.3113 24.7223 10.9567 24.6564 10.5869Z" fill="#00B2FF"/>
</symbol><symbol id="icon-stopwatch"><path d="M3.846 12.364L2.34 10.872a2.065 2.065 0 010-2.938c.818-.81 2.15-.81 2.968 0l1.608 1.592a14.774 14.774 0 015.593-2.341V5.119H11.11c-.386 0-.7-.31-.7-.693V2.625a2.09 2.09 0 012.1-2.078h5.596a2.09 2.09 0 012.1 2.078v1.8a.696.696 0 01-.7.694h-1.4v2.066A14.772 14.772 0 0123.7 9.526l1.609-1.592a2.116 2.116 0 012.968 0c.818.81.818 2.128 0 2.938l-1.507 1.492A14.44 14.44 0 0130 21.465c0 8.02-6.591 14.546-14.692 14.546-8.101 0-14.692-6.525-14.692-14.546a14.44 14.44 0 013.23-9.101zm.473-3.45a.706.706 0 00-.99 0 .689.689 0 000 .979l1.446 1.431a14.84 14.84 0 011.023-.946l-1.48-1.464zm14.487-6.289a.697.697 0 00-.7-.693H12.51c-.386 0-.7.31-.7.693v1.108h6.997V2.625zm-4.898 2.494v1.866a15.201 15.201 0 012.799 0V5.119h-2.799zm13.378 3.795a.706.706 0 00-.99 0l-1.478 1.464c.355.3.697.615 1.022.946l1.446-1.431a.689.689 0 000-.98zM15.308 34.626c7.33 0 13.293-5.904 13.293-13.16a13.07 13.07 0 00-3.305-8.686 13.352 13.352 0 00-9.988-4.475 13.353 13.353 0 00-8.041 2.68c-.705.53-1.36 1.134-1.947 1.795a13.069 13.069 0 00-3.305 8.685c0 7.257 5.963 13.16 13.293 13.16z" fill="#00B2FF"/><path d="M15.307 23.543a2.09 2.09 0 01-2.098-2.078c0-.903.584-1.673 1.399-1.959V14.54c0-.383.313-.693.7-.693.386 0 .699.31.699.693v4.967a2.083 2.083 0 011.4 1.96 2.09 2.09 0 01-2.1 2.077zm0-2.77c-.386 0-.7.31-.7.692 0 .382.315.693.7.693.386 0 .7-.31.7-.693a.697.697 0 00-.7-.692z" fill="#00B2FF"/><path d="M7.855 14.158a.642.642 0 01.075-.074 10.554 10.554 0 014.41-2.585.7.7 0 01.869.468.692.692 0 01-.473.86 9.146 9.146 0 00-3.342 1.804l.472.467c.273.27.273.71 0 .98a.701.701 0 01-.99 0l-.472-.468a8.874 8.874 0 00-2.165 5.163h.673c.387 0 .7.31.7.692a.696.696 0 01-.7.693H6.24a8.873 8.873 0 002.165 5.163l.473-.469a.705.705 0 01.99 0 .69.69 0 010 .98l-.474.468a9.06 9.06 0 005.215 2.143v-.666c0-.383.313-.693.7-.693.386 0 .7.31.7.693v.666a9.058 9.058 0 005.214-2.143l-.473-.468a.688.688 0 010-.98.705.705 0 01.99 0l.473.469a8.874 8.874 0 002.164-5.163h-.673c-.386 0-.7-.31-.7-.693 0-.382.314-.692.7-.692h.673a8.874 8.874 0 00-2.164-5.163l-.473.468a.701.701 0 01-.99 0 .688.688 0 010-.98l.472-.467a9.14 9.14 0 00-3.341-1.804.691.691 0 01-.473-.86.7.7 0 01.869-.469 10.551 10.551 0 014.409 2.584.723.723 0 01.042.038l.033.037a10.266 10.266 0 013.042 7.308c0 2.755-1.08 5.347-3.041 7.308l-.034.037-.038.034a10.476 10.476 0 01-7.381 3.011 10.476 10.476 0 01-7.381-3.01l-.038-.035-.034-.037a10.266 10.266 0 01-3.042-7.308c0-2.754 1.08-5.347 3.042-7.307z" fill="#00B2FF"/><path d="M15.308 12.46c-.386 0-.7-.31-.7-.692 0-.382.313-.693.7-.693.386 0 .7.31.7.693a.696.696 0 01-.7.693z" fill="#00B2FF"/></symbol><symbol id="icon-tag"><path d="M10.794 8.44a.633.633 0 00-.444-.184.633.633 0 00-.444.184.634.634 0 00-.184.444c0 .166.067.328.184.445a.633.633 0 00.444.184.633.633 0 00.629-.629.633.633 0 00-.184-.444z" fill="#00B2FF"/><path d="M32.611 3.175l-.777-.778.777-.777a.629.629 0 00-.89-.889l-.776.777L30.18.74a.629.629 0 00-.445-.185L19.098.551h-.002c-.84 0-1.63.327-2.224.92l-5.308 5.31a.629.629 0 00.889.889l5.308-5.31c.357-.356.83-.552 1.335-.552h.001l10.377.006.583.583-2.332 2.332a2.579 2.579 0 00-3.144.388 2.559 2.559 0 00-.754 1.821c0 .688.268 1.334.754 1.82a2.567 2.567 0 001.82.754c.66 0 1.32-.251 1.821-.753.85-.85.98-2.152.39-3.14l2.333-2.333.593.594-.006 10.365c0 .504-.197.977-.553 1.334L15.642 30.918c-.356.357-.83.553-1.335.553a1.88 1.88 0 01-1.335-.553L2.425 20.369a1.876 1.876 0 01-.553-1.335c0-.504.197-.978.553-1.335L9.2 10.923a.629.629 0 00-.889-.889L1.536 16.81a3.125 3.125 0 00-.92 2.224c0 .84.326 1.63.92 2.224l10.548 10.549c.613.613 1.418.92 2.223.92.806 0 1.61-.307 2.224-.92l15.337-15.34c.593-.593.92-1.382.921-2.222l.006-10.625a.628.628 0 00-.184-.445zM27.333 7.87c-.249.249-.58.386-.931.386a1.32 1.32 0 010-2.635c.127 0 .254.018.377.054l-.726.726a.629.629 0 00.889.889l.723-.724c.13.448.02.952-.332 1.304z" fill="#00B2FF"/><path d="M27.463 13.202L20.14 5.877c-.97-.97-2.55-.97-3.52 0L5.03 17.469a2.473 2.473 0 00-.73 1.76c0 .665.26 1.29.73 1.76l7.324 7.326c.47.47 1.095.729 1.76.729.664 0 1.29-.259 1.76-.729l11.59-11.593c.47-.47.73-1.095.73-1.76s-.26-1.29-.73-1.76zm-.889 2.631l-11.59 11.593c-.233.233-.543.36-.871.36-.33 0-.639-.127-.871-.36L5.917 20.1a1.224 1.224 0 01-.36-.87c0-.33.127-.639.36-.872L17.508 6.766a1.229 1.229 0 011.741 0l7.325 7.325c.233.233.361.542.361.871 0 .33-.128.639-.36.871z" fill="#00B2FF"/><path d="M21.11 13.122a.629.629 0 00-.89-.89l-.361.363c-.966-.597-2.206-.517-2.99.267a2.281 2.281 0 00-.658 1.747c.031.647.31 1.265.784 1.74.505.505.562 1.272.126 1.708-.437.436-1.203.38-1.709-.126-.505-.506-.562-1.272-.126-1.709a.629.629 0 00-.888-.889c-.784.784-.864 2.024-.267 2.99l-.43.43a.629.629 0 10.89.89l.429-.43a2.6 2.6 0 001.362.393c.6 0 1.186-.219 1.628-.66.926-.926.87-2.49-.126-3.486a1.39 1.39 0 01-.418-.912 1.038 1.038 0 01.292-.797c.436-.437 1.202-.38 1.708.126s.562 1.272.126 1.708a.629.629 0 00.889.89c.784-.785.864-2.025.267-2.991l.362-.362zm-6.36 10.421l-3.229-3.229a.629.629 0 00-.889.89l3.229 3.228a.627.627 0 00.888 0 .629.629 0 000-.889zm-4.951-4.951a.632.632 0 00-.444-.184.634.634 0 00-.445.184.633.633 0 00.444 1.074.632.632 0 00.63-.629.633.633 0 00-.185-.445z" fill="#00B2FF"/></symbol><symbol id="icon-vk"><path d="M19.475 15.127c-1.109-1.024-1.188-1.024-.238-2.206 1.188-1.497 2.773-3.388 1.347-3.388H17.97c-.475 0-.554.316-.713.71-.633 1.496-1.9 3.466-2.376 3.15-.475-.314-.237-1.496-.237-3.387a.61.61 0 00-.159-.63c-.158-.158-.396-.315-.633-.315-.396-.079-.792-.158-1.188-.158-1.505 0-2.535.63-1.98.71 1.03.157.95 2.363.712 3.308-.396 1.655-1.98-1.26-2.693-2.757-.079-.394-.396-.63-.792-.63H5.852c-.317 0-.554.078-.554.315 0 .393 1.98 4.254 3.801 6.224 1.822 1.89 3.644 1.733 4.911 1.733a.607.607 0 00.396-.158.6.6 0 00.158-.394c0-1.26.476-1.89 1.347-1.024.95.945 1.188 1.576 2.376 1.576h2.138c.555 0 .713-.158.713-.394.08-.552-.871-1.576-1.663-2.285zM13.852.001c7.366.157 13.226 6.066 13.147 13.235-.079 7.17-6.178 12.842-13.543 12.763C6.01 25.92.07 20.17.07 13 .15 5.753 6.327-.077 13.852.002z" fill="#CDCDCD"/></symbol></svg>