<svg xmlns="http://www.w3.org/2000/svg" xmlns:xlink="http://www.w3.org/1999/xlink"><symbol id="icon-detective"><path d="M18 9.758a.706.706 0 00-.703.708c0 .391.315.708.703.708a.706.706 0 00.703-.708.706.706 0 00-.703-.708z" fill="#00B2FF"/><path d="M33.89 14.007h-2.735C29.712 9.859 27.62 2.587 23.829.53c-1.896-1.028-3.688-.31-4.362 1.148A1.59 1.59 0 0118 2.625a1.59 1.59 0 01-1.467-.946C15.883.27 14.133-.514 12.304.38 8.453 2.264 6.3 9.828 4.845 14.007H2.11c-1.166 0-2.11.95-2.11 2.123a2.12 2.12 0 002.11 2.124h31.78c1.166 0 2.11-.95 2.11-2.124a2.12 2.12 0 00-2.11-2.124zM7.316 11.174h7.872a.706.706 0 00.704-.708.706.706 0 00-.704-.708h-7.38c2.12-5.896 4.1-7.609 5.111-8.104 1.104-.54 2.013-.088 2.34.622A2.996 2.996 0 0018 4.041a2.996 2.996 0 002.742-1.765c.337-.73 1.25-1.134 2.42-.5 1.016.552 2.99 2.322 5.03 7.982h-7.38a.706.706 0 00-.703.708c0 .391.315.708.703.708h7.873c.355 1.033.725 2.098.98 2.833H6.335c.255-.733.623-1.796.98-2.833zm26.576 5.665H2.109a.706.706 0 01-.703-.708c0-.391.315-.708.703-.708h31.782c.387 0 .703.317.703.708 0 .39-.315.708-.703.708zm-17.298 4.248H5.344a.705.705 0 00-.703.708v2.832C4.64 28.142 7.479 31 10.969 31a6.316 6.316 0 005.915-4.105 2.681 2.681 0 012.232 0A6.315 6.315 0 0025.031 31c3.49 0 6.328-2.859 6.328-6.373v-2.832a.706.706 0 00-.703-.708h-11.25a.706.706 0 00-.703.708v.708h-1.406v-.708a.705.705 0 00-.703-.708zm-5.625 8.497c-2.714 0-4.922-2.224-4.922-4.956v-2.125h9.844v2.125c0 2.74-2.197 4.956-4.922 4.956zm9.14-7.08h9.844v2.123c0 2.733-2.208 4.957-4.922 4.957-2.732 0-4.922-2.223-4.922-4.956v-2.125zm-1.406 1.415v.709c0 .226.013.451.036.675a4.08 4.08 0 00-1.478 0 6.62 6.62 0 00.036-.675v-.709h1.406z" fill="#00B2FF"/><path d="M10.969 26.752a2.12 2.12 0 01-2.11-2.125.705.705 0 00-.703-.708.705.705 0 00-.703.708c0 1.952 1.577 3.54 3.516 3.54a.706.706 0 00.703-.707.706.706 0 00-.703-.708zm14.062 1.416c1.939 0 3.516-1.589 3.516-3.54a.706.706 0 00-.703-.709.706.706 0 00-.703.708 2.12 2.12 0 01-2.11 2.125.706.706 0 00-.703.708c0 .39.315.708.703.708z" fill="#00B2FF"/></symbol><symbol id="icon-envelope" viewBox="0 0 26 19">
<path d="M22.2407 0H3.09787C1.38906 0 0 1.34493 0 2.99946V15.6672C0 17.3217 1.38906 18.6667 3.09787 18.6667H22.2355C23.9443 18.6667 25.3333 17.3217 25.3333 15.6672V3.00453C25.3386 1.35001 23.9495 0 22.2407 0ZM23.9233 15.6672C23.9233 16.5655 23.1685 17.2964 22.2407 17.2964H3.09787C2.17008 17.2964 1.41527 16.5655 1.41527 15.6672V3.00453C1.41527 2.10622 2.17008 1.37539 3.09787 1.37539H22.2355C23.1632 1.37539 23.9181 2.10622 23.9181 3.00453V15.6672H23.9233Z" fill="#00B2FF"/>
<path d="M15.9768 9.17598L22.1725 3.79624C22.4608 3.54248 22.487 3.11108 22.2249 2.82687C21.9629 2.54773 21.5173 2.52236 21.2238 2.77612L12.6797 10.2012L11.0129 8.75981C11.0076 8.75473 11.0024 8.74966 11.0024 8.74458C10.9657 8.70905 10.929 8.6786 10.8871 8.64815L4.10425 2.77104C3.81071 2.51728 3.36517 2.54266 3.10308 2.82687C2.84099 3.11108 2.8672 3.54248 3.16074 3.79624L9.42986 9.22165L3.18695 14.8805C2.90389 15.1394 2.88817 15.5708 3.1555 15.8499C3.29702 15.992 3.48573 16.0681 3.67443 16.0681C3.84741 16.0681 4.02038 16.0072 4.15667 15.8854L10.4939 10.1453L12.2132 11.6324C12.3495 11.7491 12.5172 11.8049 12.685 11.8049C12.8527 11.8049 13.0257 11.744 13.1567 11.6273L14.9232 10.0946L21.2238 15.8905C21.3601 16.0174 21.5383 16.0783 21.7112 16.0783C21.9 16.0783 22.0834 16.0072 22.2249 15.8651C22.4923 15.5911 22.4818 15.1546 22.1987 14.8958L15.9768 9.17598Z" fill="#00B2FF"/>
</symbol><symbol id="icon-facebook"><path fill-rule="evenodd" clip-rule="evenodd" d="M27 13.5C27 6.045 20.956 0 13.5 0S0 6.045 0 13.5C0 20.956 6.044 27 13.5 27S27 20.956 27 13.5zM16.884 9.294h-1.74c-.469 0-.798.397-.798.891v.775h2.485l-.402 2.517h-2.083v6.747h-2.543v-6.747h-1.688V10.96h1.688V9.677h.004c.045-1.463.553-2.856 3.031-2.944v-.01h2.046v2.571z" fill="#CDCDCD"/></symbol><symbol id="icon-hired"><path d="M31.264 27.893a3.132 3.132 0 00.597-1.842v-4.108a.684.684 0 00-.684-.683h-3.055a2.564 2.564 0 00-2.561 2.561v2.23c0 .687.222 1.323.596 1.841a4.402 4.402 0 00-1.336.445 5.817 5.817 0 00-4.294-2.56l-.021-.005a4.02 4.02 0 001.03-2.69V17.5a.684.684 0 00-.684-.684H16.7a3.24 3.24 0 00-3.236 3.236v3.03a4.02 4.02 0 001.03 2.69l-.021.005a5.816 5.816 0 00-4.294 2.56c-.42-.22-.87-.369-1.337-.445a3.132 3.132 0 00.597-1.84v-4.109a.684.684 0 00-.684-.683H5.7a2.564 2.564 0 00-2.56 2.561v2.23c0 .688.221 1.324.596 1.842A4.464 4.464 0 000 32.291v2.025c0 .378.306.684.684.684h33.632a.684.684 0 00.684-.684v-2.025a4.464 4.464 0 00-3.736-4.398zM4.506 23.821c0-.658.536-1.194 1.194-1.194h2.372v.832a.74.74 0 01-.74.74H4.506v-.378zm0 1.746h2.826c.26 0 .51-.048.74-.135v.62c0 .982-.8 1.782-1.783 1.782-.983 0-1.783-.8-1.783-1.783v-.484zm2.224 3.634l-.44.44-.442-.44h.882zm2.468 2.363v2.069h-7.83V32.29a3.095 3.095 0 012.588-3.049l1.85 1.85a.684.684 0 00.966 0l1.85-1.85c.327.053.642.158.934.312a5.784 5.784 0 00-.358 2.01zm8.302-5.813a2.672 2.672 0 01-2.668-2.668v-.904h4.085c.453 0 .88-.115 1.252-.319v1.223a2.672 2.672 0 01-2.669 2.669zm1.192 1.368L17.5 28.31l-1.192-1.191h2.384zm-3.86-7.067a1.87 1.87 0 011.868-1.868h3.469v1.377c0 .69-.562 1.251-1.252 1.251H14.83v-.76zm9.603 13.58h-13.87v-1.366h4.451a.684.684 0 100-1.368h-4.4a4.455 4.455 0 013.8-3.738l2.6 2.6a.682.682 0 00.967 0l2.601-2.6a4.451 4.451 0 013.85 4.404v2.069zm2.493-9.81c0-.66.536-1.195 1.194-1.195h2.372v.832a.74.74 0 01-.74.74h-2.826v-.378zm0 1.745h2.825c.26 0 .51-.048.74-.135v.62c0 .982-.799 1.782-1.782 1.782s-1.783-.8-1.783-1.783v-.484zm2.224 3.634l-.441.44-.44-.44h.88zm-3.35 4.432v-2.069c0-.706-.127-1.383-.358-2.01.292-.154.606-.26.933-.312l1.85 1.85a.684.684 0 00.967 0l1.85-1.85a3.095 3.095 0 012.589 3.05v1.34h-7.831zM20.869 4.466a.684.684 0 00-.967 0l-3.354 3.355-1.45-1.45a.684.684 0 10-.967.967l1.933 1.933a.684.684 0 00.967 0l3.838-3.838a.684.684 0 000-.966z" fill="#00B2FF"/><path d="M20.295.593a.684.684 0 00-.557 1.248 5.51 5.51 0 013.264 5.028A5.508 5.508 0 0117.5 12.37a5.508 5.508 0 01-5.502-5.501 5.515 5.515 0 013.24-5.017.683.683 0 10-.563-1.246 6.885 6.885 0 00-4.044 6.263 6.877 6.877 0 006.869 6.868 6.876 6.876 0 006.869-6.868A6.88 6.88 0 0020.295.593z" fill="#00B2FF"/><path d="M17.524 0H17.5a.684.684 0 000 1.367h.021A.684.684 0 0017.524 0zm.459 31.099a.688.688 0 00-.483-.2.689.689 0 00-.483.2.689.689 0 00-.2.483.684.684 0 00.683.683.688.688 0 00.684-.683.689.689 0 00-.2-.483z" fill="#00B2FF"/></symbol><symbol id="icon-logo-m"><path d="M23.433 10.133c.825 0 1.522.532 1.784 1.267h6.566a1.897 1.897 0 011.784-1.267c1.047 0 1.9.853 1.9 1.9 0 1.048-.853 1.9-1.9 1.9a1.897 1.897 0 01-1.784-1.267h-6.567a1.897 1.897 0 01-1.783 1.267c-1.048 0-1.9-.852-1.9-1.9 0-1.047.853-1.9 1.9-1.9zm10.134 2.534a.634.634 0 10-.002-1.268.634.634 0 00.002 1.268zm-10.134 0a.634.634 0 10-.001-1.269.634.634 0 00.002 1.268z" fill="#00B2FF"/><path d="M18.367 14.05v-3.917a.63.63 0 01.185-.448l2.534-2.533a.632.632 0 01.447-.185h2.017A1.897 1.897 0 0125.333 5.7c1.048 0 1.9.852 1.9 1.9 0 1.047-.852 1.9-1.9 1.9a1.897 1.897 0 01-1.783-1.267h-1.754l-2.163 2.162v3.655a1.897 1.897 0 011.267 1.783c0 1.048-.852 1.9-1.9 1.9-1.047 0-1.9-.852-1.9-1.9 0-.825.531-1.521 1.267-1.783zm6.966-5.817a.634.634 0 100-1.268.634.634 0 000 1.268zM19 16.466a.634.634 0 100-1.268.634.634 0 000 1.268zm-12.033 0c.292 0 .566.072.814.191l1.086-1.086V9.5a.63.63 0 01.185-.448l6.339-6.338A1.87 1.87 0 0115.2 1.9c0-1.048.852-1.9 1.9-1.9 1.047 0 1.9.852 1.9 1.9 0 1.047-.852 1.9-1.9 1.9-.293 0-.566-.072-.814-.19l-6.153 6.152v6.071a.63.63 0 01-.185.448l-1.272 1.271c.12.248.19.522.19.814 0 1.048-.852 1.9-1.9 1.9-1.047 0-1.9-.852-1.9-1.9 0-1.047.853-1.9 1.9-1.9zM17.1 2.533a.634.634 0 10-.001-1.268.634.634 0 00.001 1.268zM6.967 19a.634.634 0 10-.002-1.268A.634.634 0 006.967 19zm-5.7-10.017v-2.65a.63.63 0 01.186-.448l4.433-4.433a.632.632 0 01.448-.185h3.283A1.897 1.897 0 0111.4 0c1.048 0 1.9.852 1.9 1.9 0 1.047-.852 1.9-1.9 1.9a1.897 1.897 0 01-1.783-1.267H6.596L2.534 6.595v2.388A1.897 1.897 0 013.8 10.767c0 1.047-.852 1.9-1.9 1.9-1.047 0-1.9-.853-1.9-1.9 0-.825.532-1.522 1.267-1.784zM11.4 2.533a.634.634 0 100-1.268.634.634 0 000 1.268zM1.9 11.4a.634.634 0 100-1.268.634.634 0 000 1.268zm8.233 22.917v-9.1a1.898 1.898 0 01-1.266-1.784c0-1.048.852-1.9 1.9-1.9.825 0 1.521.531 1.783 1.267h6.567a1.897 1.897 0 011.783-1.267c.825 0 1.522.531 1.784 1.267h3.654l2.353-2.353a1.87 1.87 0 01-.19-.814c0-1.047.852-1.9 1.9-1.9 1.047 0 1.9.852 1.9 1.9 0 1.047-.853 1.9-1.9 1.9a1.88 1.88 0 01-.814-.19l-2.539 2.538a.632.632 0 01-.448.185h-3.916a1.898 1.898 0 01-1.784 1.267 1.898 1.898 0 01-1.783-1.267H12.55a1.898 1.898 0 01-1.15 1.15v9.1a1.897 1.897 0 011.266 1.784c0 1.047-.852 1.9-1.9 1.9-1.047 0-1.9-.852-1.9-1.9 0-.825.532-1.521 1.267-1.783zM30.4 20.267a.634.634 0 100-1.268.634.634 0 000 1.267zm-9.5 3.8a.634.634 0 10-.001-1.269.634.634 0 00.001 1.268zM10.767 36.732a.634.634 0 10-.001-1.268.634.634 0 00.001 1.268zm0-12.667a.634.634 0 10-.001-1.268.634.634 0 00.001 1.268z" fill="#00B2FF"/><path d="M13.3 12.783v-2.016a.63.63 0 01.185-.448l7.605-7.605a1.868 1.868 0 01-.19-.814c0-1.048.852-1.9 1.9-1.9.824 0 1.521.531 1.783 1.267h2.65c.35 0 .633.283.633.633v1.638L30.22 5.89c.248-.12.521-.191.814-.191 1.048 0 1.9.852 1.9 1.9 0 1.047-.852 1.9-1.9 1.9-1.047 0-1.9-.853-1.9-1.9 0-.293.072-.566.19-.814l-2.538-2.538A.63.63 0 0126.6 3.8V2.533h-2.017A1.897 1.897 0 0122.8 3.8a1.87 1.87 0 01-.814-.19l-7.42 7.419v1.754a1.897 1.897 0 011.267 1.783c0 1.048-.852 1.9-1.9 1.9-1.047 0-1.9-.852-1.9-1.9 0-.824.532-1.52 1.267-1.783zm17.733-4.55a.634.634 0 10-.001-1.268.634.634 0 00.001 1.268zm-8.233-5.7a.634.634 0 10-.002-1.268.634.634 0 00.002 1.268zM13.933 15.2a.634.634 0 10-.001-1.268.634.634 0 00.001 1.268z" fill="#00B2FF"/><path d="M15.2 17.733c.825 0 1.521.531 1.784 1.267h7.454l3.614-3.615a.632.632 0 01.448-.185h6.705l1.528-1.53V8.496L31.847 3.61a1.87 1.87 0 01-.814.19c-1.047 0-1.9-.852-1.9-1.899 0-1.048.853-1.9 1.9-1.9 1.048 0 1.9.852 1.9 1.9 0 .293-.071.566-.19.814l5.071 5.071a.63.63 0 01.186.448v5.7a.63.63 0 01-.186.448l-1.9 1.9a.631.631 0 01-.447.185h-6.705l-3.614 3.615a.632.632 0 01-.448.185h-7.716a1.897 1.897 0 01-1.784 1.267c-1.047 0-1.9-.853-1.9-1.9s.852-1.9 1.9-1.9zM31.033 1.267a.634.634 0 10.002 1.268.634.634 0 00-.002-1.268zm-15.833 19a.634.634 0 10-.001-1.268.634.634 0 00.001 1.267zM1.9 15.2c.293 0 .567.071.814.19l2.353-2.352V9.383A1.897 1.897 0 013.801 7.6c0-1.048.852-1.9 1.9-1.9 1.047 0 1.9.852 1.9 1.9 0 .825-.532 1.521-1.267 1.783V13.3a.63.63 0 01-.186.448L3.61 16.286c.119.248.19.521.19.814 0 .824-.53 1.521-1.266 1.783v.488l4.881 4.88a.63.63 0 01.186.449v.75a1.897 1.897 0 011.266 1.783c0 .825-.531 1.521-1.266 1.783v1.5A1.897 1.897 0 018.867 32.3c0 1.048-.852 1.9-1.9 1.9-1.047 0-1.9-.852-1.9-1.9 0-.824.532-1.521 1.267-1.783v-1.5a1.897 1.897 0 01-1.267-1.784 1.9 1.9 0 011.267-1.784v-.487L1.453 20.08a.63.63 0 01-.186-.448v-.75A1.897 1.897 0 01.001 17.1c0-1.048.852-1.9 1.9-1.9zm3.8-6.967a.634.634 0 100-1.268.634.634 0 000 1.268zm1.267 24.7a.634.634 0 10-.001-1.268.634.634 0 00.001 1.268zm0-5.067a.634.634 0 10-.001-1.268.634.634 0 00.001 1.268zM1.901 17.733a.634.634 0 10-.002-1.268.634.634 0 00.002 1.268z" fill="#00B2FF"/></symbol><symbol id="icon-logo"><path d="M32.067 13.867c1.128 0 2.081.727 2.44 1.733h8.986a2.596 2.596 0 012.44-1.733c1.434 0 2.6 1.166 2.6 2.6 0 1.433-1.166 2.6-2.6 2.6a2.597 2.597 0 01-2.44-1.734h-8.987a2.597 2.597 0 01-2.44 1.733 2.603 2.603 0 01-2.6-2.6c0-1.433 1.167-2.6 2.6-2.6zm13.866 3.466a.868.868 0 000-1.733.867.867 0 000 1.733zm-13.866 0a.868.868 0 10-.002-1.735.868.868 0 00.002 1.735z" fill="#00B2FF"/><path d="M25.133 19.226v-5.36c0-.23.091-.45.254-.612l3.467-3.467a.864.864 0 01.613-.254h2.76a2.596 2.596 0 012.44-1.733c1.433 0 2.6 1.166 2.6 2.6 0 1.433-1.167 2.6-2.6 2.6a2.596 2.596 0 01-2.44-1.733h-2.402l-2.958 2.958v5a2.596 2.596 0 011.733 2.441c0 1.434-1.167 2.6-2.6 2.6a2.603 2.603 0 01-2.6-2.6c0-1.128.727-2.081 1.733-2.44zm9.534-7.96a.868.868 0 10-.002-1.735.868.868 0 00.002 1.736zM26 22.534a.867.867 0 10-.002-1.735.867.867 0 00.002 1.735zm-16.467-.001c.4 0 .775.098 1.114.26l1.486-1.485V13c0-.23.091-.45.254-.613l8.674-8.673A2.556 2.556 0 0120.8 2.6c0-1.433 1.166-2.6 2.6-2.6C24.834 0 26 1.167 26 2.6s-1.166 2.6-2.6 2.6c-.4 0-.775-.098-1.114-.261l-8.42 8.42v8.307c0 .23-.09.451-.253.613l-1.74 1.74c.162.34.26.714.26 1.114 0 1.433-1.166 2.6-2.6 2.6a2.603 2.603 0 01-2.6-2.6c0-1.433 1.167-2.6 2.6-2.6zM23.4 3.467a.868.868 0 000-1.734.868.868 0 000 1.734zM9.533 26a.868.868 0 10-.001-1.735A.868.868 0 009.533 26zm-7.8-13.707V8.667c0-.231.091-.451.254-.613l6.067-6.067a.864.864 0 01.613-.254h4.492A2.597 2.597 0 0115.6 0c1.433 0 2.6 1.167 2.6 2.6s-1.167 2.6-2.6 2.6a2.597 2.597 0 01-2.44-1.733H9.024L3.467 9.025v3.268a2.596 2.596 0 011.733 2.44c0 1.433-1.167 2.6-2.6 2.6a2.603 2.603 0 01-2.6-2.6c0-1.128.727-2.082 1.733-2.44zM15.6 3.467a.867.867 0 10-.002-1.735.867.867 0 00.002 1.735zM2.6 15.6a.867.867 0 10-.002-1.735A.867.867 0 002.6 15.6zm11.266 31.36V34.507a2.597 2.597 0 01-1.733-2.44c0-1.434 1.167-2.6 2.6-2.6 1.129 0 2.082.726 2.44 1.733h8.986a2.597 2.597 0 012.441-1.734c1.128 0 2.082.727 2.44 1.733h5.001l3.22-3.22A2.557 2.557 0 0139 26.867c0-1.433 1.166-2.6 2.6-2.6 1.433 0 2.6 1.167 2.6 2.6 0 1.434-1.167 2.6-2.6 2.6-.4 0-.775-.098-1.114-.26l-3.473 3.473a.864.864 0 01-.613.254h-5.36a2.597 2.597 0 01-2.44 1.733 2.597 2.597 0 01-2.44-1.733h-8.987a2.598 2.598 0 01-1.574 1.574V46.96a2.596 2.596 0 011.733 2.44c0 1.434-1.166 2.6-2.6 2.6a2.603 2.603 0 01-2.6-2.6c0-1.128.728-2.082 1.734-2.44zM41.6 27.732a.867.867 0 10-.002-1.735.867.867 0 00.002 1.735zm-13 5.2a.868.868 0 10-.002-1.735.868.868 0 00.002 1.735zM14.733 50.266a.868.868 0 000-1.733.868.868 0 000 1.733zm0-17.333a.868.868 0 000-1.733.868.868 0 000 1.733z" fill="#00B2FF"/><path d="M18.2 17.492v-2.759c0-.23.091-.45.254-.613L28.86 3.714A2.556 2.556 0 0128.6 2.6c0-1.433 1.166-2.6 2.6-2.6 1.128 0 2.082.727 2.44 1.733h3.627c.478 0 .866.388.866.867v2.241l3.22 3.22a2.556 2.556 0 011.114-.261c1.433 0 2.6 1.166 2.6 2.6 0 1.433-1.167 2.6-2.6 2.6a2.603 2.603 0 01-2.6-2.6c0-.4.098-.775.26-1.114l-3.473-3.473A.863.863 0 0136.4 5.2V3.467h-2.76A2.596 2.596 0 0131.2 5.2c-.4 0-.775-.098-1.114-.261L19.933 15.092v2.4a2.596 2.596 0 011.734 2.441c0 1.433-1.167 2.6-2.6 2.6a2.603 2.603 0 01-2.6-2.6c0-1.128.727-2.082 1.733-2.44zm24.267-6.226a.868.868 0 10-.002-1.735.868.868 0 00.002 1.736zM31.2 3.467a.868.868 0 000-1.733.868.868 0 000 1.734zM19.067 20.8a.868.868 0 10-.002-1.735.868.868 0 00.002 1.735z" fill="#00B2FF"/><path d="M20.8 24.266c1.128 0 2.082.727 2.44 1.734h10.201l4.946-4.946A.864.864 0 0139 20.8h9.175l2.092-2.092v-7.083L43.58 4.94c-.338.163-.713.26-1.113.26a2.603 2.603 0 01-2.6-2.599c0-1.433 1.166-2.6 2.6-2.6 1.433 0 2.6 1.167 2.6 2.6 0 .4-.098.775-.261 1.114l6.94 6.94a.863.863 0 01.254.613v7.8c0 .23-.091.45-.254.612l-2.6 2.6a.864.864 0 01-.613.254H39.36l-4.946 4.946a.864.864 0 01-.613.254H23.24a2.596 2.596 0 01-2.44 1.733 2.603 2.603 0 01-2.6-2.6c0-1.433 1.166-2.6 2.6-2.6zM42.467 1.733a.868.868 0 10.001 1.735.868.868 0 00-.001-1.735zm-21.667 26a.868.868 0 000-1.733.868.868 0 000 1.733zM2.6 20.8c.4 0 .775.098 1.114.26l3.22-3.219v-5A2.596 2.596 0 015.2 10.4c0-1.434 1.167-2.6 2.6-2.6s2.6 1.166 2.6 2.6a2.596 2.596 0 01-1.733 2.44v5.36c0 .23-.091.45-.254.613l-3.474 3.473c.163.339.261.713.261 1.114a2.597 2.597 0 01-1.733 2.44v.668l6.679 6.679a.863.863 0 01.254.613v1.026a2.596 2.596 0 011.733 2.44 2.596 2.596 0 01-1.733 2.44v2.054a2.596 2.596 0 011.733 2.44c0 1.434-1.166 2.6-2.6 2.6a2.603 2.603 0 01-2.6-2.6c0-1.128.727-2.082 1.734-2.44v-2.053a2.596 2.596 0 01-1.734-2.44c0-1.13.727-2.083 1.734-2.441v-.668l-6.68-6.679a.863.863 0 01-.254-.613V25.84A2.597 2.597 0 010 23.4c0-1.434 1.167-2.6 2.6-2.6zm5.2-9.534a.867.867 0 10-.002-1.734.867.867 0 00.002 1.735zm1.733 33.8a.868.868 0 000-1.733.867.867 0 000 1.733zm0-6.933a.868.868 0 000-1.733.867.867 0 000 1.733zM2.6 24.266a.867.867 0 10-.002-1.735.867.867 0 00.002 1.735z" fill="#00B2FF"/></symbol><symbol id="icon-odnoklassniki"><path d="M13.851 10.957c1.016 0 1.806-.836 1.787-1.746.019-.91-.752-1.764-1.768-1.764-.978 0-1.787.78-1.787 1.746 0 .965.79 1.764 1.768 1.764z" fill="#CDCDCD"/><path d="M13.701 0C6.441 0 .535 5.831.535 13c0 7.187 5.906 13 13.166 13 7.279 0 13.166-5.831 13.166-13C26.885 5.83 20.98 0 13.7 0zm.188 4.921c2.37 0 4.326 1.932 4.307 4.29 0 2.377-1.975 4.29-4.382 4.253-2.37-.037-4.27-1.95-4.27-4.271 0-2.359 1.938-4.272 4.345-4.272zm4.834 10.029c0 .037-.019.056-.019.093a1.213 1.213 0 01-.564.873c-.207.13-.433.26-.659.371a8.55 8.55 0 01-1.786.65c-.075.019-.075.019-.02.074l1.035 1.022 1.317 1.3c.62.613.451 1.634-.339 2.006-.131.074-.282.092-.432.13h-.245c-.019 0-.037 0-.037-.02-.301-.036-.546-.185-.771-.39l-2.276-2.246c-.057-.056-.057-.056-.113 0l-2.295 2.265c-.131.13-.263.223-.432.298-.113.055-.245.074-.358.092h-.244c-.038 0-.057-.018-.094-.018-.508-.093-.847-.372-.997-.854-.15-.483-.038-.91.32-1.263l.94-.929 1.392-1.374c.056-.056.056-.056-.019-.074-.019 0-.056-.019-.075-.019a8.182 8.182 0 01-2.351-.984c-.433-.279-.64-.687-.583-1.189.094-.928 1.147-1.43 1.937-.928.15.092.282.167.451.241a5.413 5.413 0 002.746.557c.47-.018.94-.111 1.411-.26.451-.148.846-.353 1.26-.575.677-.39 1.561-.075 1.825.65.037.11.056.204.075.315v.186z" fill="#CDCDCD"/></symbol><symbol id="icon-phone"><path d="M19.645 13.867c-.492-.512-1.086-.785-1.715-.785-.624 0-1.222.268-1.735.78l-1.603 1.596c-.132-.071-.264-.137-.39-.203a6.451 6.451 0 01-.503-.268c-1.501-.953-2.866-2.194-4.174-3.8-.635-.8-1.06-1.473-1.37-2.157.416-.38.801-.775 1.177-1.155.142-.142.284-.289.426-.43 1.065-1.064 1.065-2.442 0-3.506L8.373 2.556c-.157-.157-.32-.319-.472-.481a23.938 23.938 0 00-.953-.942c-.492-.486-1.08-.745-1.7-.745-.619 0-1.217.259-1.724.745l-.01.01L1.788 2.88a3.704 3.704 0 00-1.1 2.356c-.122 1.479.314 2.857.65 3.758.821 2.214 2.049 4.265 3.88 6.464 2.222 2.649 4.895 4.74 7.949 6.215 1.167.552 2.724 1.205 4.464 1.317.106.005.218.01.32.01 1.171 0 2.155-.42 2.926-1.256.005-.01.016-.015.02-.026.264-.319.569-.607.888-.916.218-.208.442-.426.66-.654.502-.522.766-1.13.766-1.752 0-.629-.269-1.231-.781-1.738l-2.785-2.79zm1.816 5.334c-.005 0-.005.005 0 0-.198.213-.401.405-.62.618-.329.314-.664.643-.978 1.013-.512.547-1.116.805-1.907.805-.077 0-.158 0-.234-.005-1.507-.096-2.907-.684-3.957-1.185-2.87-1.388-5.392-3.358-7.487-5.855-1.73-2.082-2.886-4.007-3.652-6.074-.472-1.261-.645-2.244-.568-3.17a2.32 2.32 0 01.7-1.505l1.73-1.728c.248-.233.512-.36.77-.36.32 0 .579.193.741.355l.015.016c.31.288.604.587.913.906.158.162.32.324.482.492l1.385 1.382c.538.537.538 1.034 0 1.57-.147.148-.29.295-.436.436a26.33 26.33 0 01-1.273 1.236c-.01.01-.02.016-.026.026-.436.435-.355.86-.264 1.15l.016.045c.36.871.867 1.692 1.638 2.67l.005.005c1.4 1.722 2.877 3.064 4.505 4.092.208.132.42.239.624.34.182.091.355.177.502.268.02.01.04.026.06.036.173.086.336.126.503.126.421 0 .685-.263.771-.35l1.735-1.732c.172-.172.446-.38.766-.38.314 0 .573.198.73.37l.01.01 2.796 2.792c.522.516.522 1.048.005 1.585z" fill="#00B2FF"/></symbol><symbol id="icon-stopwatch"><path d="M3.188 11.662L1.702 10.19a2.038 2.038 0 010-2.9c.807-.8 2.122-.8 2.929 0l1.587 1.572a14.58 14.58 0 015.52-2.311V4.51h-1.38a.687.687 0 01-.691-.683V2.051C9.667.92 10.596 0 11.738 0h5.524c1.142 0 2.071.92 2.071 2.05v1.778a.687.687 0 01-.69.684h-1.381V6.55a14.578 14.578 0 015.52 2.31l1.587-1.57c.807-.8 2.121-.8 2.93 0a2.04 2.04 0 010 2.9l-1.487 1.471A14.252 14.252 0 0129 20.644C29 28.56 22.495 35 14.5 35S0 28.56 0 20.645c0-3.277 1.128-6.442 3.188-8.983zm.467-3.405a.696.696 0 00-.977 0 .68.68 0 000 .967l1.427 1.412c.322-.327.659-.638 1.01-.934l-1.46-1.445zm14.297-6.206a.688.688 0 00-.69-.684h-5.524c-.38 0-.69.307-.69.684v1.094h6.904V2.05zM13.12 4.51v1.843a15.006 15.006 0 012.762 0V4.512H13.12zm13.203 3.746a.696.696 0 00-.977 0l-1.46 1.445c.351.296.688.607 1.01.934l1.427-1.412a.68.68 0 000-.967zM14.5 33.633c7.234 0 13.119-5.827 13.119-12.989 0-3.159-1.158-6.202-3.262-8.57A13.177 13.177 0 0014.5 7.656a13.18 13.18 0 00-7.936 2.645 13.19 13.19 0 00-1.921 1.771 12.898 12.898 0 00-3.262 8.572c0 7.161 5.885 12.988 13.119 12.988z" fill="#fff"/><path d="M14.5 22.695a2.063 2.063 0 01-2.071-2.05c0-.892.577-1.651 1.38-1.934V13.81c0-.378.31-.684.691-.684.382 0 .69.306.69.684v4.902a2.056 2.056 0 011.382 1.934c0 1.13-.93 2.05-2.072 2.05zm0-2.734c-.38 0-.69.306-.69.684 0 .377.31.683.69.683.38 0 .69-.306.69-.683a.688.688 0 00-.69-.684z" fill="#fff"/><path d="M7.145 13.433a.54.54 0 01.033-.037l.04-.037a10.417 10.417 0 014.353-2.55.682.682 0 11.391 1.311 9.028 9.028 0 00-3.298 1.78l.466.46c.27.268.27.7 0 .968a.692.692 0 01-.977 0l-.467-.462A8.758 8.758 0 005.55 19.96h.664c.382 0 .69.306.69.684a.686.686 0 01-.69.683H5.55a8.757 8.757 0 002.136 5.096l.467-.463a.696.696 0 01.977 0c.27.267.27.7 0 .967l-.467.462a8.941 8.941 0 005.147 2.115v-.657c0-.378.309-.684.69-.684.381 0 .69.306.69.684v.657a8.939 8.939 0 005.147-2.115l-.467-.462a.679.679 0 010-.967.696.696 0 01.977 0l.467.463a8.758 8.758 0 002.136-5.096h-.664a.687.687 0 01-.69-.683c0-.378.308-.684.69-.684h.664a8.758 8.758 0 00-2.136-5.095l-.467.462a.692.692 0 01-.977 0 .68.68 0 010-.967l.466-.461a9.024 9.024 0 00-3.298-1.78.682.682 0 01-.466-.85.692.692 0 01.857-.462 10.414 10.414 0 014.351 2.55.672.672 0 01.042.037l.033.037a10.132 10.132 0 013.002 7.213c0 2.718-1.066 5.277-3.002 7.211a.555.555 0 01-.033.037.38.38 0 01-.037.033 10.34 10.34 0 01-7.285 2.972c-2.746 0-5.33-1.055-7.284-2.971l-.038-.034c-.012-.011-.022-.024-.033-.036a10.132 10.132 0 01-3.002-7.212 10.13 10.13 0 013.002-7.212z" fill="#fff"/><path d="M14.5 11.758a.687.687 0 01-.69-.684c0-.377.309-.683.69-.683.381 0 .69.306.69.683a.688.688 0 01-.69.684z" fill="#fff"/></symbol><symbol id="icon-tag"><path d="M11.07 8.585a.689.689 0 00-.483-.2.689.689 0 00-.483.2.69.69 0 00-.2.483.685.685 0 001.167.483.69.69 0 00.2-.483.689.689 0 00-.2-.483z" fill="#00B2FF"/><path d="M34.8 2.859l-.845-.847.845-.845A.684.684 0 0033.833.2l-.844.845-.833-.834a.683.683 0 00-.484-.2L20.102.003H20.1c-.913 0-1.772.356-2.418 1.002L11.908 6.78a.684.684 0 00.967.967l5.774-5.774A2.04 2.04 0 0120.1 1.37h.002l11.286.007.634.634-2.537 2.537a2.805 2.805 0 00-3.419.422 2.783 2.783 0 00-.82 1.98c0 .748.291 1.452.82 1.98a2.792 2.792 0 001.98.82c.717 0 1.434-.273 1.98-.82a2.806 2.806 0 00.425-3.415l2.537-2.537.645.646-.007 11.273a2.04 2.04 0 01-.601 1.451L16.344 33.033a2.04 2.04 0 01-1.452.601 2.04 2.04 0 01-1.452-.601L1.97 21.559a2.04 2.04 0 01-.602-1.452c0-.548.214-1.064.602-1.452l7.368-7.37a.684.684 0 00-.966-.966L1 17.689a3.399 3.399 0 00-1 2.417c0 .914.356 1.773 1.002 2.42L12.473 34a3.41 3.41 0 002.419 1 3.41 3.41 0 002.419-1l16.68-16.684a3.4 3.4 0 001.003-2.417L35 3.342a.683.683 0 00-.2-.483zm-5.74 5.106c-.271.27-.631.42-1.014.42s-.742-.15-1.013-.42a1.435 1.435 0 011.013-2.447c.139 0 .277.02.41.06l-.789.789a.684.684 0 00.967.967l.787-.787a1.434 1.434 0 01-.361 1.418z" fill="#00B2FF"/><path d="M29.2 13.764l-7.966-7.967a2.71 2.71 0 00-3.828 0L4.8 18.406a2.69 2.69 0 00-.793 1.914c0 .723.282 1.403.793 1.914l7.967 7.968c.511.51 1.19.793 1.914.793.723 0 1.402-.282 1.913-.793L29.2 17.592a2.69 2.69 0 00.793-1.913 2.69 2.69 0 00-.793-1.915zm-.966 2.862L15.627 29.235a1.33 1.33 0 01-.947.392 1.33 1.33 0 01-.947-.392l-7.967-7.968a1.33 1.33 0 01-.392-.947c0-.358.139-.695.392-.948L18.373 6.764c.261-.262.604-.392.947-.392.343 0 .686.13.947.392l7.967 7.967c.253.253.392.59.392.948 0 .357-.14.694-.392.947z" fill="#00B2FF"/><path d="M22.29 13.677a.684.684 0 00-.966-.967l-.394.394c-1.051-.65-2.4-.563-3.252.29a2.48 2.48 0 00-.716 1.9 2.876 2.876 0 00.853 1.892c.55.55.611 1.384.137 1.859-.475.474-1.309.413-1.859-.137s-.61-1.384-.136-1.859a.684.684 0 00-.967-.967c-.853.853-.94 2.202-.29 3.253l-.468.467a.684.684 0 00.968.967l.467-.467c.46.283.975.427 1.482.427.652 0 1.29-.238 1.77-.717 1.007-1.008.946-2.709-.137-3.792a1.512 1.512 0 01-.454-.991 1.13 1.13 0 01.317-.868c.474-.475 1.308-.413 1.858.137s.611 1.384.137 1.858a.684.684 0 00.966.967c.853-.852.94-2.201.29-3.252l.394-.394zm-6.918 11.335L11.86 21.5a.684.684 0 00-.967.967l3.511 3.512a.682.682 0 00.967 0 .684.684 0 000-.967zm-5.384-5.385a.688.688 0 00-.483-.2.69.69 0 00-.483.2.69.69 0 00-.2.484.684.684 0 00.683.683.688.688 0 00.684-.683.689.689 0 00-.2-.484z" fill="#00B2FF"/></symbol><symbol id="icon-vk"><path d="M19.475 15.127c-1.109-1.024-1.188-1.024-.238-2.206 1.188-1.497 2.773-3.388 1.347-3.388H17.97c-.475 0-.554.316-.713.71-.633 1.496-1.9 3.466-2.376 3.15-.475-.314-.237-1.496-.237-3.387a.61.61 0 00-.159-.63c-.158-.158-.396-.315-.633-.315-.396-.079-.792-.158-1.188-.158-1.505 0-2.535.63-1.98.71 1.03.157.95 2.363.712 3.308-.396 1.655-1.98-1.26-2.693-2.757-.079-.394-.396-.63-.792-.63H5.852c-.317 0-.554.078-.554.315 0 .393 1.98 4.254 3.801 6.224 1.822 1.89 3.644 1.733 4.911 1.733a.607.607 0 00.396-.158.6.6 0 00.158-.394c0-1.26.476-1.89 1.347-1.024.95.945 1.188 1.576 2.376 1.576h2.138c.555 0 .713-.158.713-.394.08-.552-.871-1.576-1.663-2.285zM13.852.001c7.366.157 13.226 6.066 13.147 13.235-.079 7.17-6.178 12.842-13.543 12.763C6.01 25.92.07 20.17.07 13 .15 5.753 6.327-.077 13.852.002z" fill="#CDCDCD"/></symbol></svg>